<?xml version="1.0" encoding="us-ascii" standalone="no"?><svg xmlns="http://www.w3.org/2000/svg" xmlns:xlink="http://www.w3.org/1999/xlink" contentStyleType="text/css" height="1110px" preserveAspectRatio="none" style="width:2713px;height:1110px;background:#FFFFFF;" version="1.1" viewBox="0 0 2713 1110" width="2713px" zoomAndPan="magnify"><defs/><g><!--class DefaultEntity--><g id="elem_DefaultEntity"><rect codeLine="37" fill="#FFFFFF" height="136.0469" id="DefaultEntity" rx="2.5" ry="2.5" style="stroke:#2C3E6B;stroke-width:0.5;" width="215" x="1212" y="7"/><rect fill="#9BADDB" height="32" rx="2.5" ry="2.5" style="stroke:#9BADDB;stroke-width:0.5;" width="215" x="1212" y="7"/><rect fill="#9BADDB" height="2.5" style="stroke:#9BADDB;stroke-width:0.5;" width="215" x="1212" y="36.5"/><rect codeLine="37" fill="none" height="136.0469" id="DefaultEntity" rx="2.5" ry="2.5" style="stroke:#2C3E6B;stroke-width:0.5;" width="215" x="1212" y="7"/><ellipse cx="1284.25" cy="23" fill="#A9DCDF" rx="11" ry="11" style="stroke:#181818;stroke-width:1.0;"/><path d="M1286.4375,24.7656 L1282.2969,24.7656 L1281.875,25.7969 L1282.2969,25.7969 Q1282.9063,25.7969 1283.1719,26.0313 Q1283.4375,26.2656 1283.4375,26.6563 Q1283.4375,27.0313 1283.1719,27.2656 Q1282.9063,27.5 1282.2969,27.5 L1280,27.5 Q1279.3906,27.5 1279.1406,27.2656 Q1278.875,27.0313 1278.875,26.6406 Q1278.875,26.2656 1279.1563,26.0313 Q1279.4219,25.7813 1280.0469,25.7969 L1282.7188,19.1406 L1281.6094,19.1406 Q1281,19.1406 1280.7344,18.9063 Q1280.4688,18.6719 1280.4688,18.2813 Q1280.4688,17.9063 1280.7344,17.6719 Q1281,17.4375 1281.6094,17.4375 L1285.2813,17.4375 L1288.6719,25.7969 Q1289.2656,25.7969 1289.4531,25.9375 Q1289.8438,26.2031 1289.8438,26.6563 Q1289.8438,27.0313 1289.5781,27.2656 Q1289.3281,27.5 1288.7188,27.5 L1286.4219,27.5 Q1285.8125,27.5 1285.5469,27.2656 Q1285.2813,27.0313 1285.2813,26.6406 Q1285.2813,26.2656 1285.5469,26.0313 Q1285.8125,25.7969 1286.4219,25.7969 L1286.8438,25.7969 L1286.4375,24.7656 Z M1285.7188,23.0625 L1284.3594,19.6875 L1282.9844,23.0625 L1285.7188,23.0625 Z " fill="#000000"/><text fill="#000000" font-family="sans-serif" font-size="11" font-style="italic" lengthAdjust="spacing" textLength="62" x="1304.75" y="27.501">DefaultEntity</text><line style="stroke:#2C3E6B;stroke-width:0.5;" x1="1213" x2="1426" y1="39" y2="39"/><text fill="#000000" font-family="sans-serif" font-size="14" lengthAdjust="spacing" textLength="63" x="1218" y="57.5332">#id : Long</text><text fill="#000000" font-family="sans-serif" font-size="14" lengthAdjust="spacing" textLength="201" x="1218" y="75.1426">#dataCadastro : LocalDateTime</text><text fill="#000000" font-family="sans-serif" font-size="14" lengthAdjust="spacing" textLength="203" x="1218" y="92.752">#dataAlteracao : LocalDateTime</text><line style="stroke:#2C3E6B;stroke-width:1.0;" x1="1213" x2="1426" y1="99.8281" y2="99.8281"/><text fill="#000000" font-family="sans-serif" font-size="14" lengthAdjust="spacing" textLength="197" x="1218" y="118.3613">+registrarDataCadastro() : void</text><text fill="#000000" font-family="sans-serif" font-size="14" lengthAdjust="spacing" textLength="199" x="1218" y="135.9707">+registrarDataAlteracao() : void</text></g><!--class Usuario--><g id="elem_Usuario"><rect codeLine="51" fill="#FFFFFF" height="100.8281" id="Usuario" rx="2.5" ry="2.5" style="stroke:#2C3E6B;stroke-width:0.5;" width="129" x="1510" y="771"/><rect fill="#9BADDB" height="32" rx="2.5" ry="2.5" style="stroke:#9BADDB;stroke-width:0.5;" width="129" x="1510" y="771"/><rect fill="#9BADDB" height="2.5" style="stroke:#9BADDB;stroke-width:0.5;" width="129" x="1510" y="800.5"/><rect codeLine="51" fill="none" height="100.8281" id="Usuario" rx="2.5" ry="2.5" style="stroke:#2C3E6B;stroke-width:0.5;" width="129" x="1510" y="771"/><ellipse cx="1552" cy="787" fill="#ADD1B2" rx="11" ry="11" style="stroke:#181818;stroke-width:1.0;"/><path d="M1554.7656,782.875 Q1554.9219,782.6563 1555.1094,782.5469 Q1555.2969,782.4375 1555.5156,782.4375 Q1555.8906,782.4375 1556.125,782.7031 Q1556.3594,782.9531 1556.3594,783.5625 L1556.3594,785.0156 Q1556.3594,785.625 1556.125,785.8906 Q1555.8906,786.1563 1555.5156,786.1563 Q1555.1719,786.1563 1554.9688,785.9531 Q1554.7656,785.7656 1554.6563,785.25 Q1554.6094,784.8906 1554.4219,784.7031 Q1554.0938,784.3281 1553.4844,784.1094 Q1552.875,783.8906 1552.25,783.8906 Q1551.4844,783.8906 1550.8438,784.2188 Q1550.2188,784.5469 1549.7188,785.2969 Q1549.2344,786.0469 1549.2344,787.0781 L1549.2344,788.1719 Q1549.2344,789.4063 1550.125,790.2344 Q1551.0156,791.0469 1552.6094,791.0469 Q1553.5469,791.0469 1554.2031,790.7969 Q1554.5938,790.6406 1555.0156,790.2031 Q1555.2813,789.9375 1555.4219,789.8594 Q1555.5781,789.7813 1555.7813,789.7813 Q1556.1094,789.7813 1556.3594,790.0469 Q1556.625,790.2969 1556.625,790.6406 Q1556.625,790.9844 1556.2813,791.3906 Q1555.7813,791.9688 1554.9844,792.2969 Q1553.9063,792.75 1552.6094,792.75 Q1551.0938,792.75 1549.8906,792.125 Q1548.9063,791.625 1548.2188,790.5625 Q1547.5313,789.4844 1547.5313,788.2031 L1547.5313,787.0469 Q1547.5313,785.7188 1548.1406,784.5781 Q1548.7656,783.4219 1549.8594,782.8125 Q1550.9531,782.1875 1552.1875,782.1875 Q1552.9219,782.1875 1553.5625,782.3594 Q1554.2188,782.5156 1554.7656,782.875 Z " fill="#000000"/><text fill="#000000" font-family="sans-serif" font-size="11" lengthAdjust="spacing" textLength="37" x="1572" y="791.501">Usuario</text><line style="stroke:#2C3E6B;stroke-width:0.5;" x1="1511" x2="1638" y1="803" y2="803"/><text fill="#000000" font-family="sans-serif" font-size="14" lengthAdjust="spacing" textLength="117" x="1516" y="821.5332">-username : String</text><text fill="#000000" font-family="sans-serif" font-size="14" lengthAdjust="spacing" textLength="93" x="1516" y="839.1426">-senha : String</text><text fill="#000000" font-family="sans-serif" font-size="14" lengthAdjust="spacing" textLength="80" x="1516" y="856.752">-perfil : Perfil</text><line style="stroke:#2C3E6B;stroke-width:0.5;" x1="1511" x2="1638" y1="863.8281" y2="863.8281"/></g><!--class Perfil--><g id="elem_Perfil"><rect codeLine="57" fill="#FFFFFF" height="83.2188" id="Perfil" rx="2.5" ry="2.5" style="stroke:#2C3E6B;stroke-width:0.5;" width="56" x="1546.5" y="1020"/><rect fill="#9BADDB" height="32" rx="2.5" ry="2.5" style="stroke:#9BADDB;stroke-width:0.5;" width="56" x="1546.5" y="1020"/><rect fill="#9BADDB" height="2.5" style="stroke:#9BADDB;stroke-width:0.5;" width="56" x="1546.5" y="1049.5"/><rect codeLine="57" fill="none" height="83.2188" id="Perfil" rx="2.5" ry="2.5" style="stroke:#2C3E6B;stroke-width:0.5;" width="56" x="1546.5" y="1020"/><ellipse cx="1561.5" cy="1036" fill="#EB937F" rx="11" ry="11" style="stroke:#181818;stroke-width:1.0;"/><path d="M1560.3594,1036.7969 L1560.3594,1039.2969 L1564.6875,1039.2969 L1564.6875,1038.375 Q1564.6875,1037.7656 1564.9219,1037.5 Q1565.1719,1037.2344 1565.5469,1037.2344 Q1565.9219,1037.2344 1566.1563,1037.5 Q1566.3906,1037.7656 1566.3906,1038.375 L1566.3906,1041 L1558.3906,1041 Q1557.7656,1041 1557.5,1040.7656 Q1557.25,1040.5313 1557.25,1040.1406 Q1557.25,1039.7656 1557.5156,1039.5313 Q1557.7813,1039.2969 1558.3906,1039.2969 L1558.6563,1039.2969 L1558.6563,1032.6406 L1558.3906,1032.6406 Q1557.7656,1032.6406 1557.5,1032.4063 Q1557.25,1032.1719 1557.25,1031.7813 Q1557.25,1031.4063 1557.5,1031.1719 Q1557.7656,1030.9375 1558.3906,1030.9375 L1566.0156,1030.9375 L1566.0156,1033.5313 Q1566.0156,1034.1406 1565.7813,1034.4063 Q1565.5625,1034.6563 1565.1719,1034.6563 Q1564.7969,1034.6563 1564.5625,1034.4063 Q1564.3281,1034.1406 1564.3281,1033.5313 L1564.3281,1032.6406 L1560.3594,1032.6406 L1560.3594,1035.0938 L1561.8438,1035.0938 Q1561.8438,1034.4375 1561.9688,1034.25 Q1562.2344,1033.8438 1562.7031,1033.8438 Q1563.0781,1033.8438 1563.3125,1034.1094 Q1563.5469,1034.3594 1563.5469,1034.9688 L1563.5469,1036.9375 Q1563.5469,1037.4844 1563.4219,1037.6719 Q1563.1563,1038.0625 1562.7031,1038.0625 Q1562.2344,1038.0625 1561.9688,1037.6563 Q1561.8438,1037.4688 1561.8438,1036.7969 L1560.3594,1036.7969 Z " fill="#000000"/><text fill="#000000" font-family="sans-serif" font-size="11" lengthAdjust="spacing" textLength="24" x="1575.5" y="1040.501">Perfil</text><line style="stroke:#2C3E6B;stroke-width:0.5;" x1="1547.5" x2="1601.5" y1="1052" y2="1052"/><text fill="#000000" font-family="sans-serif" font-size="14" lengthAdjust="spacing" textLength="30" x="1552.5" y="1070.5332">ADM</text><text fill="#000000" font-family="sans-serif" font-size="14" lengthAdjust="spacing" textLength="37" x="1552.5" y="1088.1426">USER</text><line style="stroke:#2C3E6B;stroke-width:0.5;" x1="1547.5" x2="1601.5" y1="1095.2188" y2="1095.2188"/></g><!--class Cliente--><g id="elem_Cliente"><rect codeLine="68" fill="#FFFFFF" height="118.4375" id="Cliente" rx="2.5" ry="2.5" style="stroke:#2C3E6B;stroke-width:0.5;" width="194" x="1802.5" y="469.5"/><rect fill="#9BADDB" height="32" rx="2.5" ry="2.5" style="stroke:#9BADDB;stroke-width:0.5;" width="194" x="1802.5" y="469.5"/><rect fill="#9BADDB" height="2.5" style="stroke:#9BADDB;stroke-width:0.5;" width="194" x="1802.5" y="499"/><rect codeLine="68" fill="none" height="118.4375" id="Cliente" rx="2.5" ry="2.5" style="stroke:#2C3E6B;stroke-width:0.5;" width="194" x="1802.5" y="469.5"/><ellipse cx="1879.25" cy="485.5" fill="#ADD1B2" rx="11" ry="11" style="stroke:#181818;stroke-width:1.0;"/><path d="M1882.0156,481.375 Q1882.1719,481.1563 1882.3594,481.0469 Q1882.5469,480.9375 1882.7656,480.9375 Q1883.1406,480.9375 1883.375,481.2031 Q1883.6094,481.4531 1883.6094,482.0625 L1883.6094,483.5156 Q1883.6094,484.125 1883.375,484.3906 Q1883.1406,484.6563 1882.7656,484.6563 Q1882.4219,484.6563 1882.2188,484.4531 Q1882.0156,484.2656 1881.9063,483.75 Q1881.8594,483.3906 1881.6719,483.2031 Q1881.3438,482.8281 1880.7344,482.6094 Q1880.125,482.3906 1879.5,482.3906 Q1878.7344,482.3906 1878.0938,482.7188 Q1877.4688,483.0469 1876.9688,483.7969 Q1876.4844,484.5469 1876.4844,485.5781 L1876.4844,486.6719 Q1876.4844,487.9063 1877.375,488.7344 Q1878.2656,489.5469 1879.8594,489.5469 Q1880.7969,489.5469 1881.4531,489.2969 Q1881.8438,489.1406 1882.2656,488.7031 Q1882.5313,488.4375 1882.6719,488.3594 Q1882.8281,488.2813 1883.0313,488.2813 Q1883.3594,488.2813 1883.6094,488.5469 Q1883.875,488.7969 1883.875,489.1406 Q1883.875,489.4844 1883.5313,489.8906 Q1883.0313,490.4688 1882.2344,490.7969 Q1881.1563,491.25 1879.8594,491.25 Q1878.3438,491.25 1877.1406,490.625 Q1876.1563,490.125 1875.4688,489.0625 Q1874.7813,487.9844 1874.7813,486.7031 L1874.7813,485.5469 Q1874.7813,484.2188 1875.3906,483.0781 Q1876.0156,481.9219 1877.1094,481.3125 Q1878.2031,480.6875 1879.4375,480.6875 Q1880.1719,480.6875 1880.8125,480.8594 Q1881.4688,481.0156 1882.0156,481.375 Z " fill="#000000"/><text fill="#000000" font-family="sans-serif" font-size="11" lengthAdjust="spacing" textLength="32" x="1899.75" y="490.001">Cliente</text><line style="stroke:#2C3E6B;stroke-width:0.5;" x1="1803.5" x2="1995.5" y1="501.5" y2="501.5"/><text fill="#000000" font-family="sans-serif" font-size="14" lengthAdjust="spacing" textLength="89" x="1808.5" y="520.0332">-nome : String</text><text fill="#000000" font-family="sans-serif" font-size="14" lengthAdjust="spacing" textLength="73" x="1808.5" y="537.6426">-cpf : String</text><text fill="#000000" font-family="sans-serif" font-size="14" lengthAdjust="spacing" textLength="87" x="1808.5" y="555.252">-email : String</text><text fill="#000000" font-family="sans-serif" font-size="14" lengthAdjust="spacing" textLength="182" x="1808.5" y="572.8613">-dataNascimento : LocalDate</text><line style="stroke:#2C3E6B;stroke-width:0.5;" x1="1803.5" x2="1995.5" y1="579.9375" y2="579.9375"/></g><!--class Telefone--><g id="elem_Telefone"><rect codeLine="75" fill="#FFFFFF" height="90.1484" id="Telefone" rx="2.5" ry="2.5" style="stroke:#2C3E6B;stroke-width:0.5;" width="138" x="1802.5" y="776.5"/><rect fill="#9BADDB" height="38.9297" rx="2.5" ry="2.5" style="stroke:#9BADDB;stroke-width:0.5;" width="138" x="1802.5" y="776.5"/><rect fill="#9BADDB" height="2.5" style="stroke:#9BADDB;stroke-width:0.5;" width="138" x="1802.5" y="812.9297"/><rect codeLine="75" fill="none" height="90.1484" id="Telefone" rx="2.5" ry="2.5" style="stroke:#2C3E6B;stroke-width:0.5;" width="138" x="1802.5" y="776.5"/><ellipse cx="1827.85" cy="795.9648" fill="#ADD1B2" rx="11" ry="11" style="stroke:#181818;stroke-width:1.0;"/><path d="M1830.6156,791.8398 Q1830.7719,791.6211 1830.9594,791.5117 Q1831.1469,791.4023 1831.3656,791.4023 Q1831.7406,791.4023 1831.975,791.668 Q1832.2094,791.918 1832.2094,792.5273 L1832.2094,793.9805 Q1832.2094,794.5898 1831.975,794.8555 Q1831.7406,795.1211 1831.3656,795.1211 Q1831.0219,795.1211 1830.8188,794.918 Q1830.6156,794.7305 1830.5063,794.2148 Q1830.4594,793.8555 1830.2719,793.668 Q1829.9438,793.293 1829.3344,793.0742 Q1828.725,792.8555 1828.1,792.8555 Q1827.3344,792.8555 1826.6938,793.1836 Q1826.0688,793.5117 1825.5688,794.2617 Q1825.0844,795.0117 1825.0844,796.043 L1825.0844,797.1367 Q1825.0844,798.3711 1825.975,799.1992 Q1826.8656,800.0117 1828.4594,800.0117 Q1829.3969,800.0117 1830.0531,799.7617 Q1830.4438,799.6055 1830.8656,799.168 Q1831.1313,798.9023 1831.2719,798.8242 Q1831.4281,798.7461 1831.6313,798.7461 Q1831.9594,798.7461 1832.2094,799.0117 Q1832.475,799.2617 1832.475,799.6055 Q1832.475,799.9492 1832.1313,800.3555 Q1831.6313,800.9336 1830.8344,801.2617 Q1829.7563,801.7148 1828.4594,801.7148 Q1826.9438,801.7148 1825.7406,801.0898 Q1824.7563,800.5898 1824.0688,799.5273 Q1823.3813,798.4492 1823.3813,797.168 L1823.3813,796.0117 Q1823.3813,794.6836 1823.9906,793.543 Q1824.6156,792.3867 1825.7094,791.7773 Q1826.8031,791.1523 1828.0375,791.1523 Q1828.7719,791.1523 1829.4125,791.3242 Q1830.0688,791.4805 1830.6156,791.8398 Z " fill="#000000"/><text fill="#000000" font-family="sans-serif" font-size="12" font-style="italic" lengthAdjust="spacing" textLength="87" x="1842.15" y="793.957">&#171;Embeddable&#187;</text><text fill="#000000" font-family="sans-serif" font-size="11" lengthAdjust="spacing" textLength="42" x="1864.65" y="808.0127">Telefone</text><line style="stroke:#2C3E6B;stroke-width:0.5;" x1="1803.5" x2="1939.5" y1="815.4297" y2="815.4297"/><text fill="#000000" font-family="sans-serif" font-size="14" lengthAdjust="spacing" textLength="126" x="1808.5" y="833.9629">-codigoArea : String</text><text fill="#000000" font-family="sans-serif" font-size="14" lengthAdjust="spacing" textLength="102" x="1808.5" y="851.5723">-numero : String</text><line style="stroke:#2C3E6B;stroke-width:0.5;" x1="1803.5" x2="1939.5" y1="858.6484" y2="858.6484"/></g><!--class Endereco--><g id="elem_Endereco"><rect codeLine="80" fill="#FFFFFF" height="195.8047" id="Endereco" rx="2.5" ry="2.5" style="stroke:#2C3E6B;stroke-width:0.5;" width="150" x="1980.5" y="723.5"/><rect fill="#9BADDB" height="38.9297" rx="2.5" ry="2.5" style="stroke:#9BADDB;stroke-width:0.5;" width="150" x="1980.5" y="723.5"/><rect fill="#9BADDB" height="2.5" style="stroke:#9BADDB;stroke-width:0.5;" width="150" x="1980.5" y="759.9297"/><rect codeLine="80" fill="none" height="195.8047" id="Endereco" rx="2.5" ry="2.5" style="stroke:#2C3E6B;stroke-width:0.5;" width="150" x="1980.5" y="723.5"/><ellipse cx="2011.25" cy="742.9648" fill="#ADD1B2" rx="11" ry="11" style="stroke:#181818;stroke-width:1.0;"/><path d="M2014.0156,738.8398 Q2014.1719,738.6211 2014.3594,738.5117 Q2014.5469,738.4023 2014.7656,738.4023 Q2015.1406,738.4023 2015.375,738.668 Q2015.6094,738.918 2015.6094,739.5273 L2015.6094,740.9805 Q2015.6094,741.5898 2015.375,741.8555 Q2015.1406,742.1211 2014.7656,742.1211 Q2014.4219,742.1211 2014.2188,741.918 Q2014.0156,741.7305 2013.9063,741.2148 Q2013.8594,740.8555 2013.6719,740.668 Q2013.3438,740.293 2012.7344,740.0742 Q2012.125,739.8555 2011.5,739.8555 Q2010.7344,739.8555 2010.0938,740.1836 Q2009.4688,740.5117 2008.9688,741.2617 Q2008.4844,742.0117 2008.4844,743.043 L2008.4844,744.1367 Q2008.4844,745.3711 2009.375,746.1992 Q2010.2656,747.0117 2011.8594,747.0117 Q2012.7969,747.0117 2013.4531,746.7617 Q2013.8438,746.6055 2014.2656,746.168 Q2014.5313,745.9023 2014.6719,745.8242 Q2014.8281,745.7461 2015.0313,745.7461 Q2015.3594,745.7461 2015.6094,746.0117 Q2015.875,746.2617 2015.875,746.6055 Q2015.875,746.9492 2015.5313,747.3555 Q2015.0313,747.9336 2014.2344,748.2617 Q2013.1563,748.7148 2011.8594,748.7148 Q2010.3438,748.7148 2009.1406,748.0898 Q2008.1563,747.5898 2007.4688,746.5273 Q2006.7813,745.4492 2006.7813,744.168 L2006.7813,743.0117 Q2006.7813,741.6836 2007.3906,740.543 Q2008.0156,739.3867 2009.1094,738.7773 Q2010.2031,738.1523 2011.4375,738.1523 Q2012.1719,738.1523 2012.8125,738.3242 Q2013.4688,738.4805 2014.0156,738.8398 Z " fill="#000000"/><text fill="#000000" font-family="sans-serif" font-size="12" font-style="italic" lengthAdjust="spacing" textLength="87" x="2026.75" y="740.957">&#171;Embeddable&#187;</text><text fill="#000000" font-family="sans-serif" font-size="11" lengthAdjust="spacing" textLength="46" x="2047.25" y="755.0127">Endereco</text><line style="stroke:#2C3E6B;stroke-width:0.5;" x1="1981.5" x2="2129.5" y1="762.4297" y2="762.4297"/><text fill="#000000" font-family="sans-serif" font-size="14" lengthAdjust="spacing" textLength="123" x="1986.5" y="780.9629">-logradouro : String</text><text fill="#000000" font-family="sans-serif" font-size="14" lengthAdjust="spacing" textLength="102" x="1986.5" y="798.5723">-numero : String</text><text fill="#000000" font-family="sans-serif" font-size="14" lengthAdjust="spacing" textLength="138" x="1986.5" y="816.1816">-complemento : String</text><text fill="#000000" font-family="sans-serif" font-size="14" lengthAdjust="spacing" textLength="91" x="1986.5" y="833.791">-bairro : String</text><text fill="#000000" font-family="sans-serif" font-size="14" lengthAdjust="spacing" textLength="77" x="1986.5" y="851.4004">-cep : String</text><text fill="#000000" font-family="sans-serif" font-size="14" lengthAdjust="spacing" textLength="113" x="1986.5" y="869.0098">-municipio : String</text><text fill="#000000" font-family="sans-serif" font-size="14" lengthAdjust="spacing" textLength="97" x="1986.5" y="886.6191">-estado : String</text><text fill="#000000" font-family="sans-serif" font-size="14" lengthAdjust="spacing" textLength="122" x="1986.5" y="904.2285">-principal : Boolean</text><line style="stroke:#2C3E6B;stroke-width:0.5;" x1="1981.5" x2="2129.5" y1="911.3047" y2="911.3047"/></g><!--class Pijama--><g id="elem_Pijama"><rect codeLine="100" fill="#FFFFFF" height="188.875" id="Pijama" rx="2.5" ry="2.5" style="stroke:#2C3E6B;stroke-width:0.5;" width="144" x="1165.5" y="434"/><rect fill="#9BADDB" height="32" rx="2.5" ry="2.5" style="stroke:#9BADDB;stroke-width:0.5;" width="144" x="1165.5" y="434"/><rect fill="#9BADDB" height="2.5" style="stroke:#9BADDB;stroke-width:0.5;" width="144" x="1165.5" y="463.5"/><rect codeLine="100" fill="none" height="188.875" id="Pijama" rx="2.5" ry="2.5" style="stroke:#2C3E6B;stroke-width:0.5;" width="144" x="1165.5" y="434"/><ellipse cx="1218.25" cy="450" fill="#ADD1B2" rx="11" ry="11" style="stroke:#181818;stroke-width:1.0;"/><path d="M1221.0156,445.875 Q1221.1719,445.6563 1221.3594,445.5469 Q1221.5469,445.4375 1221.7656,445.4375 Q1222.1406,445.4375 1222.375,445.7031 Q1222.6094,445.9531 1222.6094,446.5625 L1222.6094,448.0156 Q1222.6094,448.625 1222.375,448.8906 Q1222.1406,449.1563 1221.7656,449.1563 Q1221.4219,449.1563 1221.2188,448.9531 Q1221.0156,448.7656 1220.9063,448.25 Q1220.8594,447.8906 1220.6719,447.7031 Q1220.3438,447.3281 1219.7344,447.1094 Q1219.125,446.8906 1218.5,446.8906 Q1217.7344,446.8906 1217.0938,447.2188 Q1216.4688,447.5469 1215.9688,448.2969 Q1215.4844,449.0469 1215.4844,450.0781 L1215.4844,451.1719 Q1215.4844,452.4063 1216.375,453.2344 Q1217.2656,454.0469 1218.8594,454.0469 Q1219.7969,454.0469 1220.4531,453.7969 Q1220.8438,453.6406 1221.2656,453.2031 Q1221.5313,452.9375 1221.6719,452.8594 Q1221.8281,452.7813 1222.0313,452.7813 Q1222.3594,452.7813 1222.6094,453.0469 Q1222.875,453.2969 1222.875,453.6406 Q1222.875,453.9844 1222.5313,454.3906 Q1222.0313,454.9688 1221.2344,455.2969 Q1220.1563,455.75 1218.8594,455.75 Q1217.3438,455.75 1216.1406,455.125 Q1215.1563,454.625 1214.4688,453.5625 Q1213.7813,452.4844 1213.7813,451.2031 L1213.7813,450.0469 Q1213.7813,448.7188 1214.3906,447.5781 Q1215.0156,446.4219 1216.1094,445.8125 Q1217.2031,445.1875 1218.4375,445.1875 Q1219.1719,445.1875 1219.8125,445.3594 Q1220.4688,445.5156 1221.0156,445.875 Z " fill="#000000"/><text fill="#000000" font-family="sans-serif" font-size="11" lengthAdjust="spacing" textLength="30" x="1238.75" y="454.501">Pijama</text><line style="stroke:#2C3E6B;stroke-width:0.5;" x1="1166.5" x2="1308.5" y1="466" y2="466"/><text fill="#000000" font-family="sans-serif" font-size="14" lengthAdjust="spacing" textLength="89" x="1171.5" y="484.5332">-nome : String</text><text fill="#000000" font-family="sans-serif" font-size="14" lengthAdjust="spacing" textLength="115" x="1171.5" y="502.1426">-descricao : String</text><text fill="#000000" font-family="sans-serif" font-size="14" lengthAdjust="spacing" textLength="98" x="1171.5" y="519.752">-preco : Double</text><text fill="#000000" font-family="sans-serif" font-size="14" lengthAdjust="spacing" textLength="100" x="1171.5" y="537.3613">-modelo : String</text><text fill="#000000" font-family="sans-serif" font-size="14" lengthAdjust="spacing" textLength="112" x="1171.5" y="554.9707">-estoque : Integer</text><text fill="#000000" font-family="sans-serif" font-size="14" lengthAdjust="spacing" textLength="99" x="1171.5" y="572.5801">-ativo : Boolean</text><text fill="#000000" font-family="sans-serif" font-size="14" lengthAdjust="spacing" textLength="132" x="1171.5" y="590.1895">-tamanho : Tamanho</text><text fill="#000000" font-family="sans-serif" font-size="14" lengthAdjust="spacing" textLength="119" x="1171.5" y="607.7988">-sexo : SexoPijama</text><line style="stroke:#2C3E6B;stroke-width:0.5;" x1="1166.5" x2="1308.5" y1="614.875" y2="614.875"/></g><!--class Arquivo--><g id="elem_Arquivo"><rect codeLine="111" fill="#FFFFFF" height="136.0469" id="Arquivo" rx="2.5" ry="2.5" style="stroke:#2C3E6B;stroke-width:0.5;" width="151" x="1166" y="753.5"/><rect fill="#9BADDB" height="32" rx="2.5" ry="2.5" style="stroke:#9BADDB;stroke-width:0.5;" width="151" x="1166" y="753.5"/><rect fill="#9BADDB" height="2.5" style="stroke:#9BADDB;stroke-width:0.5;" width="151" x="1166" y="783"/><rect codeLine="111" fill="none" height="136.0469" id="Arquivo" rx="2.5" ry="2.5" style="stroke:#2C3E6B;stroke-width:0.5;" width="151" x="1166" y="753.5"/><ellipse cx="1218.25" cy="769.5" fill="#ADD1B2" rx="11" ry="11" style="stroke:#181818;stroke-width:1.0;"/><path d="M1221.0156,765.375 Q1221.1719,765.1563 1221.3594,765.0469 Q1221.5469,764.9375 1221.7656,764.9375 Q1222.1406,764.9375 1222.375,765.2031 Q1222.6094,765.4531 1222.6094,766.0625 L1222.6094,767.5156 Q1222.6094,768.125 1222.375,768.3906 Q1222.1406,768.6563 1221.7656,768.6563 Q1221.4219,768.6563 1221.2188,768.4531 Q1221.0156,768.2656 1220.9063,767.75 Q1220.8594,767.3906 1220.6719,767.2031 Q1220.3438,766.8281 1219.7344,766.6094 Q1219.125,766.3906 1218.5,766.3906 Q1217.7344,766.3906 1217.0938,766.7188 Q1216.4688,767.0469 1215.9688,767.7969 Q1215.4844,768.5469 1215.4844,769.5781 L1215.4844,770.6719 Q1215.4844,771.9063 1216.375,772.7344 Q1217.2656,773.5469 1218.8594,773.5469 Q1219.7969,773.5469 1220.4531,773.2969 Q1220.8438,773.1406 1221.2656,772.7031 Q1221.5313,772.4375 1221.6719,772.3594 Q1221.8281,772.2813 1222.0313,772.2813 Q1222.3594,772.2813 1222.6094,772.5469 Q1222.875,772.7969 1222.875,773.1406 Q1222.875,773.4844 1222.5313,773.8906 Q1222.0313,774.4688 1221.2344,774.7969 Q1220.1563,775.25 1218.8594,775.25 Q1217.3438,775.25 1216.1406,774.625 Q1215.1563,774.125 1214.4688,773.0625 Q1213.7813,771.9844 1213.7813,770.7031 L1213.7813,769.5469 Q1213.7813,768.2188 1214.3906,767.0781 Q1215.0156,765.9219 1216.1094,765.3125 Q1217.2031,764.6875 1218.4375,764.6875 Q1219.1719,764.6875 1219.8125,764.8594 Q1220.4688,765.0156 1221.0156,765.375 Z " fill="#000000"/><text fill="#000000" font-family="sans-serif" font-size="11" lengthAdjust="spacing" textLength="38" x="1238.75" y="774.001">Arquivo</text><line style="stroke:#2C3E6B;stroke-width:0.5;" x1="1167" x2="1316" y1="785.5" y2="785.5"/><text fill="#000000" font-family="sans-serif" font-size="14" lengthAdjust="spacing" textLength="69" x="1172" y="804.0332">-fid : String</text><text fill="#000000" font-family="sans-serif" font-size="14" lengthAdjust="spacing" textLength="138" x="1172" y="821.6426">-nomeOriginal : String</text><text fill="#000000" font-family="sans-serif" font-size="14" lengthAdjust="spacing" textLength="119" x="1172" y="839.252">-mimeType : String</text><text fill="#000000" font-family="sans-serif" font-size="14" lengthAdjust="spacing" textLength="139" x="1172" y="856.8613">-tamanhoBytes : Long</text><text fill="#000000" font-family="sans-serif" font-size="14" lengthAdjust="spacing" textLength="101" x="1172" y="874.4707">-sha256 : String</text><line style="stroke:#2C3E6B;stroke-width:0.5;" x1="1167" x2="1316" y1="881.5469" y2="881.5469"/></g><!--class Tamanho--><g id="elem_Tamanho"><rect codeLine="122" fill="#FFFFFF" height="276.9219" id="Tamanho" rx="2.5" ry="2.5" style="stroke:#2C3E6B;stroke-width:0.5;" width="160" x="834.5" y="683"/><rect fill="#9BADDB" height="32" rx="2.5" ry="2.5" style="stroke:#9BADDB;stroke-width:0.5;" width="160" x="834.5" y="683"/><rect fill="#9BADDB" height="2.5" style="stroke:#9BADDB;stroke-width:0.5;" width="160" x="834.5" y="712.5"/><rect codeLine="122" fill="none" height="276.9219" id="Tamanho" rx="2.5" ry="2.5" style="stroke:#2C3E6B;stroke-width:0.5;" width="160" x="834.5" y="683"/><ellipse cx="888.25" cy="699" fill="#EB937F" rx="11" ry="11" style="stroke:#181818;stroke-width:1.0;"/><path d="M887.1094,699.7969 L887.1094,702.2969 L891.4375,702.2969 L891.4375,701.375 Q891.4375,700.7656 891.6719,700.5 Q891.9219,700.2344 892.2969,700.2344 Q892.6719,700.2344 892.9063,700.5 Q893.1406,700.7656 893.1406,701.375 L893.1406,704 L885.1406,704 Q884.5156,704 884.25,703.7656 Q884,703.5313 884,703.1406 Q884,702.7656 884.2656,702.5313 Q884.5313,702.2969 885.1406,702.2969 L885.4063,702.2969 L885.4063,695.6406 L885.1406,695.6406 Q884.5156,695.6406 884.25,695.4063 Q884,695.1719 884,694.7813 Q884,694.4063 884.25,694.1719 Q884.5156,693.9375 885.1406,693.9375 L892.7656,693.9375 L892.7656,696.5313 Q892.7656,697.1406 892.5313,697.4063 Q892.3125,697.6563 891.9219,697.6563 Q891.5469,697.6563 891.3125,697.4063 Q891.0781,697.1406 891.0781,696.5313 L891.0781,695.6406 L887.1094,695.6406 L887.1094,698.0938 L888.5938,698.0938 Q888.5938,697.4375 888.7188,697.25 Q888.9844,696.8438 889.4531,696.8438 Q889.8281,696.8438 890.0625,697.1094 Q890.2969,697.3594 890.2969,697.9688 L890.2969,699.9375 Q890.2969,700.4844 890.1719,700.6719 Q889.9063,701.0625 889.4531,701.0625 Q888.9844,701.0625 888.7188,700.6563 Q888.5938,700.4688 888.5938,699.7969 L887.1094,699.7969 Z " fill="#000000"/><text fill="#000000" font-family="sans-serif" font-size="11" lengthAdjust="spacing" textLength="44" x="908.75" y="703.501">Tamanho</text><line style="stroke:#2C3E6B;stroke-width:0.5;" x1="835.5" x2="993.5" y1="715" y2="715"/><text fill="#000000" font-family="sans-serif" font-size="14" lengthAdjust="spacing" textLength="19" x="840.5" y="733.5332">RN</text><text fill="#000000" font-family="sans-serif" font-size="14" lengthAdjust="spacing" textLength="137" x="840.5" y="751.1426">UM_A_TRES_MESES</text><text fill="#000000" font-family="sans-serif" font-size="14" lengthAdjust="spacing" textLength="147" x="840.5" y="768.752">TRES_A_SEIS_MESES</text><text fill="#000000" font-family="sans-serif" font-size="14" lengthAdjust="spacing" textLength="148" x="840.5" y="786.3613">SEIS_A_NOVE_MESES</text><text fill="#000000" font-family="sans-serif" font-size="14" lengthAdjust="spacing" textLength="57" x="840.5" y="803.9707">UM_ANO</text><text fill="#000000" font-family="sans-serif" font-size="14" lengthAdjust="spacing" textLength="79" x="840.5" y="821.5801">DOIS_ANOS</text><text fill="#000000" font-family="sans-serif" font-size="14" lengthAdjust="spacing" textLength="83" x="840.5" y="839.1895">TRES_ANOS</text><text fill="#000000" font-family="sans-serif" font-size="14" lengthAdjust="spacing" textLength="105" x="840.5" y="856.7988">QUATRO_ANOS</text><text fill="#000000" font-family="sans-serif" font-size="14" lengthAdjust="spacing" textLength="76" x="840.5" y="874.4082">SEIS_ANOS</text><text fill="#000000" font-family="sans-serif" font-size="14" lengthAdjust="spacing" textLength="80" x="840.5" y="892.0176">OITO_ANOS</text><text fill="#000000" font-family="sans-serif" font-size="14" lengthAdjust="spacing" textLength="73" x="840.5" y="909.627">DEZ_ANOS</text><text fill="#000000" font-family="sans-serif" font-size="14" lengthAdjust="spacing" textLength="84" x="840.5" y="927.2363">DOZE_ANOS</text><text fill="#000000" font-family="sans-serif" font-size="14" lengthAdjust="spacing" textLength="56" x="840.5" y="944.8457">ADULTO</text><line style="stroke:#2C3E6B;stroke-width:0.5;" x1="835.5" x2="993.5" y1="951.9219" y2="951.9219"/></g><!--class SexoPijama--><g id="elem_SexoPijama"><rect codeLine="138" fill="#FFFFFF" height="100.8281" id="SexoPijama" rx="2.5" ry="2.5" style="stroke:#2C3E6B;stroke-width:0.5;" width="91" x="1035" y="771"/><rect fill="#9BADDB" height="32" rx="2.5" ry="2.5" style="stroke:#9BADDB;stroke-width:0.5;" width="91" x="1035" y="771"/><rect fill="#9BADDB" height="2.5" style="stroke:#9BADDB;stroke-width:0.5;" width="91" x="1035" y="800.5"/><rect codeLine="138" fill="none" height="100.8281" id="SexoPijama" rx="2.5" ry="2.5" style="stroke:#2C3E6B;stroke-width:0.5;" width="91" x="1035" y="771"/><ellipse cx="1051.8" cy="787" fill="#EB937F" rx="11" ry="11" style="stroke:#181818;stroke-width:1.0;"/><path d="M1050.6594,787.7969 L1050.6594,790.2969 L1054.9875,790.2969 L1054.9875,789.375 Q1054.9875,788.7656 1055.2219,788.5 Q1055.4719,788.2344 1055.8469,788.2344 Q1056.2219,788.2344 1056.4563,788.5 Q1056.6906,788.7656 1056.6906,789.375 L1056.6906,792 L1048.6906,792 Q1048.0656,792 1047.8,791.7656 Q1047.55,791.5313 1047.55,791.1406 Q1047.55,790.7656 1047.8156,790.5313 Q1048.0813,790.2969 1048.6906,790.2969 L1048.9563,790.2969 L1048.9563,783.6406 L1048.6906,783.6406 Q1048.0656,783.6406 1047.8,783.4063 Q1047.55,783.1719 1047.55,782.7813 Q1047.55,782.4063 1047.8,782.1719 Q1048.0656,781.9375 1048.6906,781.9375 L1056.3156,781.9375 L1056.3156,784.5313 Q1056.3156,785.1406 1056.0813,785.4063 Q1055.8625,785.6563 1055.4719,785.6563 Q1055.0969,785.6563 1054.8625,785.4063 Q1054.6281,785.1406 1054.6281,784.5313 L1054.6281,783.6406 L1050.6594,783.6406 L1050.6594,786.0938 L1052.1438,786.0938 Q1052.1438,785.4375 1052.2688,785.25 Q1052.5344,784.8438 1053.0031,784.8438 Q1053.3781,784.8438 1053.6125,785.1094 Q1053.8469,785.3594 1053.8469,785.9688 L1053.8469,787.9375 Q1053.8469,788.4844 1053.7219,788.6719 Q1053.4563,789.0625 1053.0031,789.0625 Q1052.5344,789.0625 1052.2688,788.6563 Q1052.1438,788.4688 1052.1438,787.7969 L1050.6594,787.7969 Z " fill="#000000"/><text fill="#000000" font-family="sans-serif" font-size="11" lengthAdjust="spacing" textLength="55" x="1066.2" y="791.501">SexoPijama</text><line style="stroke:#2C3E6B;stroke-width:0.5;" x1="1036" x2="1125" y1="803" y2="803"/><text fill="#000000" font-family="sans-serif" font-size="14" lengthAdjust="spacing" textLength="64" x="1041" y="821.5332">FEMININO</text><text fill="#000000" font-family="sans-serif" font-size="14" lengthAdjust="spacing" textLength="79" x="1041" y="839.1426">MASCULINO</text><text fill="#000000" font-family="sans-serif" font-size="14" lengthAdjust="spacing" textLength="56" x="1041" y="856.752">UNISSEX</text><line style="stroke:#2C3E6B;stroke-width:0.5;" x1="1036" x2="1125" y1="863.8281" y2="863.8281"/></g><!--class Categoria--><g id="elem_Categoria"><rect codeLine="144" fill="#FFFFFF" height="83.2188" id="Categoria" rx="2.5" ry="2.5" style="stroke:#2C3E6B;stroke-width:0.5;" width="127" x="7" y="780"/><rect fill="#9BADDB" height="32" rx="2.5" ry="2.5" style="stroke:#9BADDB;stroke-width:0.5;" width="127" x="7" y="780"/><rect fill="#9BADDB" height="2.5" style="stroke:#9BADDB;stroke-width:0.5;" width="127" x="7" y="809.5"/><rect codeLine="144" fill="none" height="83.2188" id="Categoria" rx="2.5" ry="2.5" style="stroke:#2C3E6B;stroke-width:0.5;" width="127" x="7" y="780"/><ellipse cx="44.05" cy="796" fill="#ADD1B2" rx="11" ry="11" style="stroke:#181818;stroke-width:1.0;"/><path d="M46.8156,791.875 Q46.9719,791.6563 47.1594,791.5469 Q47.3469,791.4375 47.5656,791.4375 Q47.9406,791.4375 48.175,791.7031 Q48.4094,791.9531 48.4094,792.5625 L48.4094,794.0156 Q48.4094,794.625 48.175,794.8906 Q47.9406,795.1563 47.5656,795.1563 Q47.2219,795.1563 47.0188,794.9531 Q46.8156,794.7656 46.7063,794.25 Q46.6594,793.8906 46.4719,793.7031 Q46.1438,793.3281 45.5344,793.1094 Q44.925,792.8906 44.3,792.8906 Q43.5344,792.8906 42.8938,793.2188 Q42.2688,793.5469 41.7688,794.2969 Q41.2844,795.0469 41.2844,796.0781 L41.2844,797.1719 Q41.2844,798.4063 42.175,799.2344 Q43.0656,800.0469 44.6594,800.0469 Q45.5969,800.0469 46.2531,799.7969 Q46.6438,799.6406 47.0656,799.2031 Q47.3313,798.9375 47.4719,798.8594 Q47.6281,798.7813 47.8313,798.7813 Q48.1594,798.7813 48.4094,799.0469 Q48.675,799.2969 48.675,799.6406 Q48.675,799.9844 48.3313,800.3906 Q47.8313,800.9688 47.0344,801.2969 Q45.9563,801.75 44.6594,801.75 Q43.1438,801.75 41.9406,801.125 Q40.9563,800.625 40.2688,799.5625 Q39.5813,798.4844 39.5813,797.2031 L39.5813,796.0469 Q39.5813,794.7188 40.1906,793.5781 Q40.8156,792.4219 41.9094,791.8125 Q43.0031,791.1875 44.2375,791.1875 Q44.9719,791.1875 45.6125,791.3594 Q46.2688,791.5156 46.8156,791.875 Z " fill="#000000"/><text fill="#000000" font-family="sans-serif" font-size="11" lengthAdjust="spacing" textLength="46" x="62.95" y="800.501">Categoria</text><line style="stroke:#2C3E6B;stroke-width:0.5;" x1="8" x2="133" y1="812" y2="812"/><text fill="#000000" font-family="sans-serif" font-size="14" lengthAdjust="spacing" textLength="89" x="13" y="830.5332">-nome : String</text><text fill="#000000" font-family="sans-serif" font-size="14" lengthAdjust="spacing" textLength="115" x="13" y="848.1426">-descricao : String</text><line style="stroke:#2C3E6B;stroke-width:0.5;" x1="8" x2="133" y1="855.2188" y2="855.2188"/></g><!--class Marca--><g id="elem_Marca"><rect codeLine="149" fill="#FFFFFF" height="83.2188" id="Marca" rx="2.5" ry="2.5" style="stroke:#2C3E6B;stroke-width:0.5;" width="127" x="526" y="780"/><rect fill="#9BADDB" height="32" rx="2.5" ry="2.5" style="stroke:#9BADDB;stroke-width:0.5;" width="127" x="526" y="780"/><rect fill="#9BADDB" height="2.5" style="stroke:#9BADDB;stroke-width:0.5;" width="127" x="526" y="809.5"/><rect codeLine="149" fill="none" height="83.2188" id="Marca" rx="2.5" ry="2.5" style="stroke:#2C3E6B;stroke-width:0.5;" width="127" x="526" y="780"/><ellipse cx="570.25" cy="796" fill="#ADD1B2" rx="11" ry="11" style="stroke:#181818;stroke-width:1.0;"/><path d="M573.0156,791.875 Q573.1719,791.6563 573.3594,791.5469 Q573.5469,791.4375 573.7656,791.4375 Q574.1406,791.4375 574.375,791.7031 Q574.6094,791.9531 574.6094,792.5625 L574.6094,794.0156 Q574.6094,794.625 574.375,794.8906 Q574.1406,795.1563 573.7656,795.1563 Q573.4219,795.1563 573.2188,794.9531 Q573.0156,794.7656 572.9063,794.25 Q572.8594,793.8906 572.6719,793.7031 Q572.3438,793.3281 571.7344,793.1094 Q571.125,792.8906 570.5,792.8906 Q569.7344,792.8906 569.0938,793.2188 Q568.4688,793.5469 567.9688,794.2969 Q567.4844,795.0469 567.4844,796.0781 L567.4844,797.1719 Q567.4844,798.4063 568.375,799.2344 Q569.2656,800.0469 570.8594,800.0469 Q571.7969,800.0469 572.4531,799.7969 Q572.8438,799.6406 573.2656,799.2031 Q573.5313,798.9375 573.6719,798.8594 Q573.8281,798.7813 574.0313,798.7813 Q574.3594,798.7813 574.6094,799.0469 Q574.875,799.2969 574.875,799.6406 Q574.875,799.9844 574.5313,800.3906 Q574.0313,800.9688 573.2344,801.2969 Q572.1563,801.75 570.8594,801.75 Q569.3438,801.75 568.1406,801.125 Q567.1563,800.625 566.4688,799.5625 Q565.7813,798.4844 565.7813,797.2031 L565.7813,796.0469 Q565.7813,794.7188 566.3906,793.5781 Q567.0156,792.4219 568.1094,791.8125 Q569.2031,791.1875 570.4375,791.1875 Q571.1719,791.1875 571.8125,791.3594 Q572.4688,791.5156 573.0156,791.875 Z " fill="#000000"/><text fill="#000000" font-family="sans-serif" font-size="11" lengthAdjust="spacing" textLength="30" x="590.75" y="800.501">Marca</text><line style="stroke:#2C3E6B;stroke-width:0.5;" x1="527" x2="652" y1="812" y2="812"/><text fill="#000000" font-family="sans-serif" font-size="14" lengthAdjust="spacing" textLength="89" x="532" y="830.5332">-nome : String</text><text fill="#000000" font-family="sans-serif" font-size="14" lengthAdjust="spacing" textLength="115" x="532" y="848.1426">-descricao : String</text><line style="stroke:#2C3E6B;stroke-width:0.5;" x1="527" x2="652" y1="855.2188" y2="855.2188"/></g><!--class Estampa--><g id="elem_Estampa"><rect codeLine="154" fill="#FFFFFF" height="65.6094" id="Estampa" rx="2.5" ry="2.5" style="stroke:#2C3E6B;stroke-width:0.5;" width="101" x="693" y="788.5"/><rect fill="#9BADDB" height="32" rx="2.5" ry="2.5" style="stroke:#9BADDB;stroke-width:0.5;" width="101" x="693" y="788.5"/><rect fill="#9BADDB" height="2.5" style="stroke:#9BADDB;stroke-width:0.5;" width="101" x="693" y="818"/><rect codeLine="154" fill="none" height="65.6094" id="Estampa" rx="2.5" ry="2.5" style="stroke:#2C3E6B;stroke-width:0.5;" width="101" x="693" y="788.5"/><ellipse cx="720.6" cy="804.5" fill="#ADD1B2" rx="11" ry="11" style="stroke:#181818;stroke-width:1.0;"/><path d="M723.3656,800.375 Q723.5219,800.1563 723.7094,800.0469 Q723.8969,799.9375 724.1156,799.9375 Q724.4906,799.9375 724.725,800.2031 Q724.9594,800.4531 724.9594,801.0625 L724.9594,802.5156 Q724.9594,803.125 724.725,803.3906 Q724.4906,803.6563 724.1156,803.6563 Q723.7719,803.6563 723.5688,803.4531 Q723.3656,803.2656 723.2563,802.75 Q723.2094,802.3906 723.0219,802.2031 Q722.6938,801.8281 722.0844,801.6094 Q721.475,801.3906 720.85,801.3906 Q720.0844,801.3906 719.4438,801.7188 Q718.8188,802.0469 718.3188,802.7969 Q717.8344,803.5469 717.8344,804.5781 L717.8344,805.6719 Q717.8344,806.9063 718.725,807.7344 Q719.6156,808.5469 721.2094,808.5469 Q722.1469,808.5469 722.8031,808.2969 Q723.1938,808.1406 723.6156,807.7031 Q723.8813,807.4375 724.0219,807.3594 Q724.1781,807.2813 724.3813,807.2813 Q724.7094,807.2813 724.9594,807.5469 Q725.225,807.7969 725.225,808.1406 Q725.225,808.4844 724.8813,808.8906 Q724.3813,809.4688 723.5844,809.7969 Q722.5063,810.25 721.2094,810.25 Q719.6938,810.25 718.4906,809.625 Q717.5063,809.125 716.8188,808.0625 Q716.1313,806.9844 716.1313,805.7031 L716.1313,804.5469 Q716.1313,803.2188 716.7406,802.0781 Q717.3656,800.9219 718.4594,800.3125 Q719.5531,799.6875 720.7875,799.6875 Q721.5219,799.6875 722.1625,799.8594 Q722.8188,800.0156 723.3656,800.375 Z " fill="#000000"/><text fill="#000000" font-family="sans-serif" font-size="11" lengthAdjust="spacing" textLength="41" x="737.4" y="809.001">Estampa</text><line style="stroke:#2C3E6B;stroke-width:0.5;" x1="694" x2="793" y1="820.5" y2="820.5"/><text fill="#000000" font-family="sans-serif" font-size="14" lengthAdjust="spacing" textLength="89" x="699" y="839.0332">-nome : String</text><line style="stroke:#2C3E6B;stroke-width:0.5;" x1="694" x2="793" y1="846.1094" y2="846.1094"/></g><!--class Cor--><g id="elem_Cor"><rect codeLine="158" fill="#FFFFFF" height="83.2188" id="Cor" rx="2.5" ry="2.5" style="stroke:#2C3E6B;stroke-width:0.5;" width="144" x="174.5" y="780"/><rect fill="#9BADDB" height="32" rx="2.5" ry="2.5" style="stroke:#9BADDB;stroke-width:0.5;" width="144" x="174.5" y="780"/><rect fill="#9BADDB" height="2.5" style="stroke:#9BADDB;stroke-width:0.5;" width="144" x="174.5" y="809.5"/><rect codeLine="158" fill="none" height="83.2188" id="Cor" rx="2.5" ry="2.5" style="stroke:#2C3E6B;stroke-width:0.5;" width="144" x="174.5" y="780"/><ellipse cx="233.75" cy="796" fill="#ADD1B2" rx="11" ry="11" style="stroke:#181818;stroke-width:1.0;"/><path d="M236.5156,791.875 Q236.6719,791.6563 236.8594,791.5469 Q237.0469,791.4375 237.2656,791.4375 Q237.6406,791.4375 237.875,791.7031 Q238.1094,791.9531 238.1094,792.5625 L238.1094,794.0156 Q238.1094,794.625 237.875,794.8906 Q237.6406,795.1563 237.2656,795.1563 Q236.9219,795.1563 236.7188,794.9531 Q236.5156,794.7656 236.4063,794.25 Q236.3594,793.8906 236.1719,793.7031 Q235.8438,793.3281 235.2344,793.1094 Q234.625,792.8906 234,792.8906 Q233.2344,792.8906 232.5938,793.2188 Q231.9688,793.5469 231.4688,794.2969 Q230.9844,795.0469 230.9844,796.0781 L230.9844,797.1719 Q230.9844,798.4063 231.875,799.2344 Q232.7656,800.0469 234.3594,800.0469 Q235.2969,800.0469 235.9531,799.7969 Q236.3438,799.6406 236.7656,799.2031 Q237.0313,798.9375 237.1719,798.8594 Q237.3281,798.7813 237.5313,798.7813 Q237.8594,798.7813 238.1094,799.0469 Q238.375,799.2969 238.375,799.6406 Q238.375,799.9844 238.0313,800.3906 Q237.5313,800.9688 236.7344,801.2969 Q235.6563,801.75 234.3594,801.75 Q232.8438,801.75 231.6406,801.125 Q230.6563,800.625 229.9688,799.5625 Q229.2813,798.4844 229.2813,797.2031 L229.2813,796.0469 Q229.2813,794.7188 229.8906,793.5781 Q230.5156,792.4219 231.6094,791.8125 Q232.7031,791.1875 233.9375,791.1875 Q234.6719,791.1875 235.3125,791.3594 Q235.9688,791.5156 236.5156,791.875 Z " fill="#000000"/><text fill="#000000" font-family="sans-serif" font-size="11" lengthAdjust="spacing" textLength="17" x="254.25" y="800.501">Cor</text><line style="stroke:#2C3E6B;stroke-width:0.5;" x1="175.5" x2="317.5" y1="812" y2="812"/><text fill="#000000" font-family="sans-serif" font-size="14" lengthAdjust="spacing" textLength="89" x="180.5" y="830.5332">-nome : String</text><text fill="#000000" font-family="sans-serif" font-size="14" lengthAdjust="spacing" textLength="132" x="180.5" y="848.1426">-hexadecimal : String</text><line style="stroke:#2C3E6B;stroke-width:0.5;" x1="175.5" x2="317.5" y1="855.2188" y2="855.2188"/></g><!--class Material--><g id="elem_Material"><rect codeLine="163" fill="#FFFFFF" height="83.2188" id="Material" rx="2.5" ry="2.5" style="stroke:#2C3E6B;stroke-width:0.5;" width="127" x="359" y="780"/><rect fill="#9BADDB" height="32" rx="2.5" ry="2.5" style="stroke:#9BADDB;stroke-width:0.5;" width="127" x="359" y="780"/><rect fill="#9BADDB" height="2.5" style="stroke:#9BADDB;stroke-width:0.5;" width="127" x="359" y="809.5"/><rect codeLine="163" fill="none" height="83.2188" id="Material" rx="2.5" ry="2.5" style="stroke:#2C3E6B;stroke-width:0.5;" width="127" x="359" y="780"/><ellipse cx="400.1" cy="796" fill="#ADD1B2" rx="11" ry="11" style="stroke:#181818;stroke-width:1.0;"/><path d="M402.8656,791.875 Q403.0219,791.6563 403.2094,791.5469 Q403.3969,791.4375 403.6156,791.4375 Q403.9906,791.4375 404.225,791.7031 Q404.4594,791.9531 404.4594,792.5625 L404.4594,794.0156 Q404.4594,794.625 404.225,794.8906 Q403.9906,795.1563 403.6156,795.1563 Q403.2719,795.1563 403.0688,794.9531 Q402.8656,794.7656 402.7563,794.25 Q402.7094,793.8906 402.5219,793.7031 Q402.1938,793.3281 401.5844,793.1094 Q400.975,792.8906 400.35,792.8906 Q399.5844,792.8906 398.9438,793.2188 Q398.3188,793.5469 397.8188,794.2969 Q397.3344,795.0469 397.3344,796.0781 L397.3344,797.1719 Q397.3344,798.4063 398.225,799.2344 Q399.1156,800.0469 400.7094,800.0469 Q401.6469,800.0469 402.3031,799.7969 Q402.6938,799.6406 403.1156,799.2031 Q403.3813,798.9375 403.5219,798.8594 Q403.6781,798.7813 403.8813,798.7813 Q404.2094,798.7813 404.4594,799.0469 Q404.725,799.2969 404.725,799.6406 Q404.725,799.9844 404.3813,800.3906 Q403.8813,800.9688 403.0844,801.2969 Q402.0063,801.75 400.7094,801.75 Q399.1938,801.75 397.9906,801.125 Q397.0063,800.625 396.3188,799.5625 Q395.6313,798.4844 395.6313,797.2031 L395.6313,796.0469 Q395.6313,794.7188 396.2406,793.5781 Q396.8656,792.4219 397.9594,791.8125 Q399.0531,791.1875 400.2875,791.1875 Q401.0219,791.1875 401.6625,791.3594 Q402.3188,791.5156 402.8656,791.875 Z " fill="#000000"/><text fill="#000000" font-family="sans-serif" font-size="11" lengthAdjust="spacing" textLength="37" x="419.9" y="800.501">Material</text><line style="stroke:#2C3E6B;stroke-width:0.5;" x1="360" x2="485" y1="812" y2="812"/><text fill="#000000" font-family="sans-serif" font-size="14" lengthAdjust="spacing" textLength="89" x="365" y="830.5332">-nome : String</text><text fill="#000000" font-family="sans-serif" font-size="14" lengthAdjust="spacing" textLength="115" x="365" y="848.1426">-descricao : String</text><line style="stroke:#2C3E6B;stroke-width:0.5;" x1="360" x2="485" y1="855.2188" y2="855.2188"/></g><!--class ListaDesejos--><g id="elem_ListaDesejos"><rect codeLine="174" fill="#FFFFFF" height="65.6094" id="ListaDesejos" rx="2.5" ry="2.5" style="stroke:#2C3E6B;stroke-width:0.5;" width="170" x="1462.5" y="255.5"/><rect fill="#9BADDB" height="32" rx="2.5" ry="2.5" style="stroke:#9BADDB;stroke-width:0.5;" width="170" x="1462.5" y="255.5"/><rect fill="#9BADDB" height="2.5" style="stroke:#9BADDB;stroke-width:0.5;" width="170" x="1462.5" y="285"/><rect codeLine="174" fill="none" height="65.6094" id="ListaDesejos" rx="2.5" ry="2.5" style="stroke:#2C3E6B;stroke-width:0.5;" width="170" x="1462.5" y="255.5"/><ellipse cx="1512.25" cy="271.5" fill="#ADD1B2" rx="11" ry="11" style="stroke:#181818;stroke-width:1.0;"/><path d="M1515.0156,267.375 Q1515.1719,267.1563 1515.3594,267.0469 Q1515.5469,266.9375 1515.7656,266.9375 Q1516.1406,266.9375 1516.375,267.2031 Q1516.6094,267.4531 1516.6094,268.0625 L1516.6094,269.5156 Q1516.6094,270.125 1516.375,270.3906 Q1516.1406,270.6563 1515.7656,270.6563 Q1515.4219,270.6563 1515.2188,270.4531 Q1515.0156,270.2656 1514.9063,269.75 Q1514.8594,269.3906 1514.6719,269.2031 Q1514.3438,268.8281 1513.7344,268.6094 Q1513.125,268.3906 1512.5,268.3906 Q1511.7344,268.3906 1511.0938,268.7188 Q1510.4688,269.0469 1509.9688,269.7969 Q1509.4844,270.5469 1509.4844,271.5781 L1509.4844,272.6719 Q1509.4844,273.9063 1510.375,274.7344 Q1511.2656,275.5469 1512.8594,275.5469 Q1513.7969,275.5469 1514.4531,275.2969 Q1514.8438,275.1406 1515.2656,274.7031 Q1515.5313,274.4375 1515.6719,274.3594 Q1515.8281,274.2813 1516.0313,274.2813 Q1516.3594,274.2813 1516.6094,274.5469 Q1516.875,274.7969 1516.875,275.1406 Q1516.875,275.4844 1516.5313,275.8906 Q1516.0313,276.4688 1515.2344,276.7969 Q1514.1563,277.25 1512.8594,277.25 Q1511.3438,277.25 1510.1406,276.625 Q1509.1563,276.125 1508.4688,275.0625 Q1507.7813,273.9844 1507.7813,272.7031 L1507.7813,271.5469 Q1507.7813,270.2188 1508.3906,269.0781 Q1509.0156,267.9219 1510.1094,267.3125 Q1511.2031,266.6875 1512.4375,266.6875 Q1513.1719,266.6875 1513.8125,266.8594 Q1514.4688,267.0156 1515.0156,267.375 Z " fill="#000000"/><text fill="#000000" font-family="sans-serif" font-size="11" lengthAdjust="spacing" textLength="62" x="1532.75" y="276.001">ListaDesejos</text><line style="stroke:#2C3E6B;stroke-width:0.5;" x1="1463.5" x2="1631.5" y1="287.5" y2="287.5"/><text fill="#000000" font-family="sans-serif" font-size="14" lengthAdjust="spacing" textLength="158" x="1468.5" y="306.0332">-dataCriacao : LocalDate</text><line style="stroke:#2C3E6B;stroke-width:0.5;" x1="1463.5" x2="1631.5" y1="313.1094" y2="313.1094"/></g><!--class CupomDesconto--><g id="elem_CupomDesconto"><rect codeLine="178" fill="#FFFFFF" height="171.2656" id="CupomDesconto" rx="2.5" ry="2.5" style="stroke:#2C3E6B;stroke-width:0.5;" width="165" x="1673" y="203"/><rect fill="#9BADDB" height="32" rx="2.5" ry="2.5" style="stroke:#9BADDB;stroke-width:0.5;" width="165" x="1673" y="203"/><rect fill="#9BADDB" height="2.5" style="stroke:#9BADDB;stroke-width:0.5;" width="165" x="1673" y="232.5"/><rect codeLine="178" fill="none" height="171.2656" id="CupomDesconto" rx="2.5" ry="2.5" style="stroke:#2C3E6B;stroke-width:0.5;" width="165" x="1673" y="203"/><ellipse cx="1712.3" cy="219" fill="#ADD1B2" rx="11" ry="11" style="stroke:#181818;stroke-width:1.0;"/><path d="M1715.0656,214.875 Q1715.2219,214.6563 1715.4094,214.5469 Q1715.5969,214.4375 1715.8156,214.4375 Q1716.1906,214.4375 1716.425,214.7031 Q1716.6594,214.9531 1716.6594,215.5625 L1716.6594,217.0156 Q1716.6594,217.625 1716.425,217.8906 Q1716.1906,218.1563 1715.8156,218.1563 Q1715.4719,218.1563 1715.2688,217.9531 Q1715.0656,217.7656 1714.9563,217.25 Q1714.9094,216.8906 1714.7219,216.7031 Q1714.3938,216.3281 1713.7844,216.1094 Q1713.175,215.8906 1712.55,215.8906 Q1711.7844,215.8906 1711.1438,216.2188 Q1710.5188,216.5469 1710.0188,217.2969 Q1709.5344,218.0469 1709.5344,219.0781 L1709.5344,220.1719 Q1709.5344,221.4063 1710.425,222.2344 Q1711.3156,223.0469 1712.9094,223.0469 Q1713.8469,223.0469 1714.5031,222.7969 Q1714.8938,222.6406 1715.3156,222.2031 Q1715.5813,221.9375 1715.7219,221.8594 Q1715.8781,221.7813 1716.0813,221.7813 Q1716.4094,221.7813 1716.6594,222.0469 Q1716.925,222.2969 1716.925,222.6406 Q1716.925,222.9844 1716.5813,223.3906 Q1716.0813,223.9688 1715.2844,224.2969 Q1714.2063,224.75 1712.9094,224.75 Q1711.3938,224.75 1710.1906,224.125 Q1709.2063,223.625 1708.5188,222.5625 Q1707.8313,221.4844 1707.8313,220.2031 L1707.8313,219.0469 Q1707.8313,217.7188 1708.4406,216.5781 Q1709.0656,215.4219 1710.1594,214.8125 Q1711.2531,214.1875 1712.4875,214.1875 Q1713.2219,214.1875 1713.8625,214.3594 Q1714.5188,214.5156 1715.0656,214.875 Z " fill="#000000"/><text fill="#000000" font-family="sans-serif" font-size="11" lengthAdjust="spacing" textLength="79" x="1731.7" y="223.501">CupomDesconto</text><line style="stroke:#2C3E6B;stroke-width:0.5;" x1="1674" x2="1837" y1="235" y2="235"/><text fill="#000000" font-family="sans-serif" font-size="14" lengthAdjust="spacing" textLength="96" x="1679" y="253.5332">-codigo : String</text><text fill="#000000" font-family="sans-serif" font-size="14" lengthAdjust="spacing" textLength="115" x="1679" y="271.1426">-descricao : String</text><text fill="#000000" font-family="sans-serif" font-size="14" lengthAdjust="spacing" textLength="153" x="1679" y="288.752">-valorDesconto : Double</text><text fill="#000000" font-family="sans-serif" font-size="14" lengthAdjust="spacing" textLength="136" x="1679" y="306.3613">-percentual : Boolean</text><text fill="#000000" font-family="sans-serif" font-size="14" lengthAdjust="spacing" textLength="141" x="1679" y="323.9707">-dataInicio : LocalDate</text><text fill="#000000" font-family="sans-serif" font-size="14" lengthAdjust="spacing" textLength="132" x="1679" y="341.5801">-dataFim : LocalDate</text><text fill="#000000" font-family="sans-serif" font-size="14" lengthAdjust="spacing" textLength="99" x="1679" y="359.1895">-ativo : Boolean</text><line style="stroke:#2C3E6B;stroke-width:0.5;" x1="1674" x2="1837" y1="366.2656" y2="366.2656"/></g><!--class Pedido--><g id="elem_Pedido"><rect codeLine="190" fill="#FFFFFF" height="136.0469" id="Pedido" rx="2.5" ry="2.5" style="stroke:#2C3E6B;stroke-width:0.5;" width="250" x="1960.5" y="7"/><rect fill="#9BADDB" height="32" rx="2.5" ry="2.5" style="stroke:#9BADDB;stroke-width:0.5;" width="250" x="1960.5" y="7"/><rect fill="#9BADDB" height="2.5" style="stroke:#9BADDB;stroke-width:0.5;" width="250" x="1960.5" y="36.5"/><rect codeLine="190" fill="none" height="136.0469" id="Pedido" rx="2.5" ry="2.5" style="stroke:#2C3E6B;stroke-width:0.5;" width="250" x="1960.5" y="7"/><ellipse cx="2065.25" cy="23" fill="#ADD1B2" rx="11" ry="11" style="stroke:#181818;stroke-width:1.0;"/><path d="M2068.0156,18.875 Q2068.1719,18.6563 2068.3594,18.5469 Q2068.5469,18.4375 2068.7656,18.4375 Q2069.1406,18.4375 2069.375,18.7031 Q2069.6094,18.9531 2069.6094,19.5625 L2069.6094,21.0156 Q2069.6094,21.625 2069.375,21.8906 Q2069.1406,22.1563 2068.7656,22.1563 Q2068.4219,22.1563 2068.2188,21.9531 Q2068.0156,21.7656 2067.9063,21.25 Q2067.8594,20.8906 2067.6719,20.7031 Q2067.3438,20.3281 2066.7344,20.1094 Q2066.125,19.8906 2065.5,19.8906 Q2064.7344,19.8906 2064.0938,20.2188 Q2063.4688,20.5469 2062.9688,21.2969 Q2062.4844,22.0469 2062.4844,23.0781 L2062.4844,24.1719 Q2062.4844,25.4063 2063.375,26.2344 Q2064.2656,27.0469 2065.8594,27.0469 Q2066.7969,27.0469 2067.4531,26.7969 Q2067.8438,26.6406 2068.2656,26.2031 Q2068.5313,25.9375 2068.6719,25.8594 Q2068.8281,25.7813 2069.0313,25.7813 Q2069.3594,25.7813 2069.6094,26.0469 Q2069.875,26.2969 2069.875,26.6406 Q2069.875,26.9844 2069.5313,27.3906 Q2069.0313,27.9688 2068.2344,28.2969 Q2067.1563,28.75 2065.8594,28.75 Q2064.3438,28.75 2063.1406,28.125 Q2062.1563,27.625 2061.4688,26.5625 Q2060.7813,25.4844 2060.7813,24.2031 L2060.7813,23.0469 Q2060.7813,21.7188 2061.3906,20.5781 Q2062.0156,19.4219 2063.1094,18.8125 Q2064.2031,18.1875 2065.4375,18.1875 Q2066.1719,18.1875 2066.8125,18.3594 Q2067.4688,18.5156 2068.0156,18.875 Z " fill="#000000"/><text fill="#000000" font-family="sans-serif" font-size="11" lengthAdjust="spacing" textLength="32" x="2085.75" y="27.501">Pedido</text><line style="stroke:#2C3E6B;stroke-width:0.5;" x1="1961.5" x2="2209.5" y1="39" y2="39"/><text fill="#000000" font-family="sans-serif" font-size="14" lengthAdjust="spacing" textLength="140" x="1966.5" y="57.5332">-data : LocalDateTime</text><text fill="#000000" font-family="sans-serif" font-size="14" lengthAdjust="spacing" textLength="89" x="1966.5" y="75.1426">-total : Double</text><text fill="#000000" font-family="sans-serif" font-size="14" lengthAdjust="spacing" textLength="153" x="1966.5" y="92.752">-valorDesconto : Double</text><text fill="#000000" font-family="sans-serif" font-size="14" lengthAdjust="spacing" textLength="139" x="1966.5" y="110.3613">-status : StatusPedido</text><text fill="#000000" font-family="sans-serif" font-size="14" lengthAdjust="spacing" textLength="238" x="1966.5" y="127.9707">-formaPagamento : FormaPagamento</text><line style="stroke:#2C3E6B;stroke-width:0.5;" x1="1961.5" x2="2209.5" y1="135.0469" y2="135.0469"/></g><!--class ItemPedido--><g id="elem_ItemPedido"><rect codeLine="198" fill="#FFFFFF" height="100.8281" id="ItemPedido" rx="2.5" ry="2.5" style="stroke:#2C3E6B;stroke-width:0.5;" width="158" x="1960.5" y="238"/><rect fill="#9BADDB" height="32" rx="2.5" ry="2.5" style="stroke:#9BADDB;stroke-width:0.5;" width="158" x="1960.5" y="238"/><rect fill="#9BADDB" height="2.5" style="stroke:#9BADDB;stroke-width:0.5;" width="158" x="1960.5" y="267.5"/><rect codeLine="198" fill="none" height="100.8281" id="ItemPedido" rx="2.5" ry="2.5" style="stroke:#2C3E6B;stroke-width:0.5;" width="158" x="1960.5" y="238"/><ellipse cx="2009.75" cy="254" fill="#ADD1B2" rx="11" ry="11" style="stroke:#181818;stroke-width:1.0;"/><path d="M2012.5156,249.875 Q2012.6719,249.6563 2012.8594,249.5469 Q2013.0469,249.4375 2013.2656,249.4375 Q2013.6406,249.4375 2013.875,249.7031 Q2014.1094,249.9531 2014.1094,250.5625 L2014.1094,252.0156 Q2014.1094,252.625 2013.875,252.8906 Q2013.6406,253.1563 2013.2656,253.1563 Q2012.9219,253.1563 2012.7188,252.9531 Q2012.5156,252.7656 2012.4063,252.25 Q2012.3594,251.8906 2012.1719,251.7031 Q2011.8438,251.3281 2011.2344,251.1094 Q2010.625,250.8906 2010,250.8906 Q2009.2344,250.8906 2008.5938,251.2188 Q2007.9688,251.5469 2007.4688,252.2969 Q2006.9844,253.0469 2006.9844,254.0781 L2006.9844,255.1719 Q2006.9844,256.4063 2007.875,257.2344 Q2008.7656,258.0469 2010.3594,258.0469 Q2011.2969,258.0469 2011.9531,257.7969 Q2012.3438,257.6406 2012.7656,257.2031 Q2013.0313,256.9375 2013.1719,256.8594 Q2013.3281,256.7813 2013.5313,256.7813 Q2013.8594,256.7813 2014.1094,257.0469 Q2014.375,257.2969 2014.375,257.6406 Q2014.375,257.9844 2014.0313,258.3906 Q2013.5313,258.9688 2012.7344,259.2969 Q2011.6563,259.75 2010.3594,259.75 Q2008.8438,259.75 2007.6406,259.125 Q2006.6563,258.625 2005.9688,257.5625 Q2005.2813,256.4844 2005.2813,255.2031 L2005.2813,254.0469 Q2005.2813,252.7188 2005.8906,251.5781 Q2006.5156,250.4219 2007.6094,249.8125 Q2008.7031,249.1875 2009.9375,249.1875 Q2010.6719,249.1875 2011.3125,249.3594 Q2011.9688,249.5156 2012.5156,249.875 Z " fill="#000000"/><text fill="#000000" font-family="sans-serif" font-size="11" lengthAdjust="spacing" textLength="51" x="2030.25" y="258.501">ItemPedido</text><line style="stroke:#2C3E6B;stroke-width:0.5;" x1="1961.5" x2="2117.5" y1="270" y2="270"/><text fill="#000000" font-family="sans-serif" font-size="14" lengthAdjust="spacing" textLength="132" x="1966.5" y="288.5332">-quantidade : Integer</text><text fill="#000000" font-family="sans-serif" font-size="14" lengthAdjust="spacing" textLength="146" x="1966.5" y="306.1426">-precoUnitario : Double</text><text fill="#000000" font-family="sans-serif" font-size="14" lengthAdjust="spacing" textLength="112" x="1966.5" y="323.752">-subtotal : Double</text><line style="stroke:#2C3E6B;stroke-width:0.5;" x1="1961.5" x2="2117.5" y1="330.8281" y2="330.8281"/></g><!--class StatusPedido--><g id="elem_StatusPedido"><rect codeLine="206" fill="#FFFFFF" height="153.6563" id="StatusPedido" rx="2.5" ry="2.5" style="stroke:#2C3E6B;stroke-width:0.5;" width="204" x="2502.5" y="211.5"/><rect fill="#9BADDB" height="32" rx="2.5" ry="2.5" style="stroke:#9BADDB;stroke-width:0.5;" width="204" x="2502.5" y="211.5"/><rect fill="#9BADDB" height="2.5" style="stroke:#9BADDB;stroke-width:0.5;" width="204" x="2502.5" y="241"/><rect codeLine="206" fill="none" height="153.6563" id="StatusPedido" rx="2.5" ry="2.5" style="stroke:#2C3E6B;stroke-width:0.5;" width="204" x="2502.5" y="211.5"/><ellipse cx="2568.75" cy="227.5" fill="#EB937F" rx="11" ry="11" style="stroke:#181818;stroke-width:1.0;"/><path d="M2567.6094,228.2969 L2567.6094,230.7969 L2571.9375,230.7969 L2571.9375,229.875 Q2571.9375,229.2656 2572.1719,229 Q2572.4219,228.7344 2572.7969,228.7344 Q2573.1719,228.7344 2573.4063,229 Q2573.6406,229.2656 2573.6406,229.875 L2573.6406,232.5 L2565.6406,232.5 Q2565.0156,232.5 2564.75,232.2656 Q2564.5,232.0313 2564.5,231.6406 Q2564.5,231.2656 2564.7656,231.0313 Q2565.0313,230.7969 2565.6406,230.7969 L2565.9063,230.7969 L2565.9063,224.1406 L2565.6406,224.1406 Q2565.0156,224.1406 2564.75,223.9063 Q2564.5,223.6719 2564.5,223.2813 Q2564.5,222.9063 2564.75,222.6719 Q2565.0156,222.4375 2565.6406,222.4375 L2573.2656,222.4375 L2573.2656,225.0313 Q2573.2656,225.6406 2573.0313,225.9063 Q2572.8125,226.1563 2572.4219,226.1563 Q2572.0469,226.1563 2571.8125,225.9063 Q2571.5781,225.6406 2571.5781,225.0313 L2571.5781,224.1406 L2567.6094,224.1406 L2567.6094,226.5938 L2569.0938,226.5938 Q2569.0938,225.9375 2569.2188,225.75 Q2569.4844,225.3438 2569.9531,225.3438 Q2570.3281,225.3438 2570.5625,225.6094 Q2570.7969,225.8594 2570.7969,226.4688 L2570.7969,228.4375 Q2570.7969,228.9844 2570.6719,229.1719 Q2570.4063,229.5625 2569.9531,229.5625 Q2569.4844,229.5625 2569.2188,229.1563 Q2569.0938,228.9688 2569.0938,228.2969 L2567.6094,228.2969 Z " fill="#000000"/><text fill="#000000" font-family="sans-serif" font-size="11" lengthAdjust="spacing" textLength="63" x="2589.25" y="232.001">StatusPedido</text><line style="stroke:#2C3E6B;stroke-width:0.5;" x1="2503.5" x2="2705.5" y1="243.5" y2="243.5"/><text fill="#000000" font-family="sans-serif" font-size="14" lengthAdjust="spacing" textLength="192" x="2508.5" y="262.0332">AGUARDANDO_PAGAMENTO</text><text fill="#000000" font-family="sans-serif" font-size="14" lengthAdjust="spacing" textLength="40" x="2508.5" y="279.6426">PAGO</text><text fill="#000000" font-family="sans-serif" font-size="14" lengthAdjust="spacing" textLength="113" x="2508.5" y="297.252">EM_SEPARACAO</text><text fill="#000000" font-family="sans-serif" font-size="14" lengthAdjust="spacing" textLength="60" x="2508.5" y="314.8613">ENVIADO</text><text fill="#000000" font-family="sans-serif" font-size="14" lengthAdjust="spacing" textLength="75" x="2508.5" y="332.4707">ENTREGUE</text><text fill="#000000" font-family="sans-serif" font-size="14" lengthAdjust="spacing" textLength="85" x="2508.5" y="350.0801">CANCELADO</text><line style="stroke:#2C3E6B;stroke-width:0.5;" x1="2503.5" x2="2705.5" y1="357.1563" y2="357.1563"/></g><!--class FormaPagamento--><g id="elem_FormaPagamento"><rect codeLine="215" fill="#FFFFFF" height="118.4375" id="FormaPagamento" rx="2.5" ry="2.5" style="stroke:#2C3E6B;stroke-width:0.5;" width="140" x="2322.5" y="229.5"/><rect fill="#9BADDB" height="32" rx="2.5" ry="2.5" style="stroke:#9BADDB;stroke-width:0.5;" width="140" x="2322.5" y="229.5"/><rect fill="#9BADDB" height="2.5" style="stroke:#9BADDB;stroke-width:0.5;" width="140" x="2322.5" y="259"/><rect codeLine="215" fill="none" height="118.4375" id="FormaPagamento" rx="2.5" ry="2.5" style="stroke:#2C3E6B;stroke-width:0.5;" width="140" x="2322.5" y="229.5"/><ellipse cx="2348.75" cy="245.5" fill="#EB937F" rx="11" ry="11" style="stroke:#181818;stroke-width:1.0;"/><path d="M2347.6094,246.2969 L2347.6094,248.7969 L2351.9375,248.7969 L2351.9375,247.875 Q2351.9375,247.2656 2352.1719,247 Q2352.4219,246.7344 2352.7969,246.7344 Q2353.1719,246.7344 2353.4063,247 Q2353.6406,247.2656 2353.6406,247.875 L2353.6406,250.5 L2345.6406,250.5 Q2345.0156,250.5 2344.75,250.2656 Q2344.5,250.0313 2344.5,249.6406 Q2344.5,249.2656 2344.7656,249.0313 Q2345.0313,248.7969 2345.6406,248.7969 L2345.9063,248.7969 L2345.9063,242.1406 L2345.6406,242.1406 Q2345.0156,242.1406 2344.75,241.9063 Q2344.5,241.6719 2344.5,241.2813 Q2344.5,240.9063 2344.75,240.6719 Q2345.0156,240.4375 2345.6406,240.4375 L2353.2656,240.4375 L2353.2656,243.0313 Q2353.2656,243.6406 2353.0313,243.9063 Q2352.8125,244.1563 2352.4219,244.1563 Q2352.0469,244.1563 2351.8125,243.9063 Q2351.5781,243.6406 2351.5781,243.0313 L2351.5781,242.1406 L2347.6094,242.1406 L2347.6094,244.5938 L2349.0938,244.5938 Q2349.0938,243.9375 2349.2188,243.75 Q2349.4844,243.3438 2349.9531,243.3438 Q2350.3281,243.3438 2350.5625,243.6094 Q2350.7969,243.8594 2350.7969,244.4688 L2350.7969,246.4375 Q2350.7969,246.9844 2350.6719,247.1719 Q2350.4063,247.5625 2349.9531,247.5625 Q2349.4844,247.5625 2349.2188,247.1563 Q2349.0938,246.9688 2349.0938,246.2969 L2347.6094,246.2969 Z " fill="#000000"/><text fill="#000000" font-family="sans-serif" font-size="11" lengthAdjust="spacing" textLength="83" x="2365.25" y="250.001">FormaPagamento</text><line style="stroke:#2C3E6B;stroke-width:0.5;" x1="2323.5" x2="2461.5" y1="261.5" y2="261.5"/><text fill="#000000" font-family="sans-serif" font-size="14" lengthAdjust="spacing" textLength="128" x="2328.5" y="280.0332">CARTAO_CREDITO</text><text fill="#000000" font-family="sans-serif" font-size="14" lengthAdjust="spacing" textLength="117" x="2328.5" y="297.6426">CARTAO_DEBITO</text><text fill="#000000" font-family="sans-serif" font-size="14" lengthAdjust="spacing" textLength="20" x="2328.5" y="315.252">PIX</text><text fill="#000000" font-family="sans-serif" font-size="14" lengthAdjust="spacing" textLength="57" x="2328.5" y="332.8613">BOLETO</text><line style="stroke:#2C3E6B;stroke-width:0.5;" x1="2323.5" x2="2461.5" y1="339.9375" y2="339.9375"/></g><!--reverse link DefaultEntity to Usuario--><g id="link_DefaultEntity_Usuario"><path codeLine="227" d="M1339,161.27 C1339,345.68 1339,822 1339,822 C1339,822 1440.12,822 1509.84,822 " fill="none" id="DefaultEntity-backto-Usuario" style="stroke:#2C3E6B;stroke-width:1.0;"/><polygon fill="none" points="1339,143.27,1333,161.27,1345,161.27,1339,143.27" style="stroke:#2C3E6B;stroke-width:1.0;"/></g><!--reverse link DefaultEntity to Cliente--><g id="link_DefaultEntity_Cliente"><path codeLine="228" d="M1361,161.46 C1361,288.29 1361,529 1361,529 C1361,529 1647.18,529 1802.29,529 " fill="none" id="DefaultEntity-backto-Cliente" style="stroke:#2C3E6B;stroke-width:1.0;"/><polygon fill="none" points="1361,143.46,1355,161.46,1367,161.46,1361,143.46" style="stroke:#2C3E6B;stroke-width:1.0;"/></g><!--reverse link DefaultEntity to Pijama--><g id="link_DefaultEntity_Pijama"><path codeLine="229" d="M1260.75,161.38 C1260.75,238.71 1260.75,347.11 1260.75,433.87 " fill="none" id="DefaultEntity-backto-Pijama" style="stroke:#2C3E6B;stroke-width:1.0;"/><polygon fill="none" points="1260.75,143.38,1254.75,161.38,1266.75,161.38,1260.75,143.38" style="stroke:#2C3E6B;stroke-width:1.0;"/></g><!--reverse link DefaultEntity to Categoria--><g id="link_DefaultEntity_Categoria"><path codeLine="230" d="M1193.75,30 C887.06,30 49.33,30 49.33,30 C49.33,30 49.33,616.54 49.33,779.78 " fill="none" id="DefaultEntity-backto-Categoria" style="stroke:#2C3E6B;stroke-width:1.0;"/><polygon fill="none" points="1211.75,30,1193.75,24,1193.75,36,1211.75,30" style="stroke:#2C3E6B;stroke-width:1.0;"/></g><!--reverse link DefaultEntity to Marca--><g id="link_DefaultEntity_Marca"><path codeLine="231" d="M1193.88,98 C986.17,98 568.33,98 568.33,98 C568.33,98 568.33,625.66 568.33,779.74 " fill="none" id="DefaultEntity-backto-Marca" style="stroke:#2C3E6B;stroke-width:1.0;"/><polygon fill="none" points="1211.88,98,1193.88,92,1193.88,104,1211.88,98" style="stroke:#2C3E6B;stroke-width:1.0;"/></g><!--reverse link DefaultEntity to Estampa--><g id="link_DefaultEntity_Estampa"><path codeLine="232" d="M1193.8,121 C1022.88,121 726.67,121 726.67,121 C726.67,121 726.67,648.97 726.67,788.18 " fill="none" id="DefaultEntity-backto-Estampa" style="stroke:#2C3E6B;stroke-width:1.0;"/><polygon fill="none" points="1211.8,121,1193.8,115,1193.8,127,1211.8,121" style="stroke:#2C3E6B;stroke-width:1.0;"/></g><!--reverse link DefaultEntity to Cor--><g id="link_DefaultEntity_Cor"><path codeLine="233" d="M1193.82,53 C917.42,53 222.5,53 222.5,53 C222.5,53 222.5,619.91 222.5,779.91 " fill="none" id="DefaultEntity-backto-Cor" style="stroke:#2C3E6B;stroke-width:1.0;"/><polygon fill="none" points="1211.82,53,1193.82,47,1193.82,59,1211.82,53" style="stroke:#2C3E6B;stroke-width:1.0;"/></g><!--reverse link DefaultEntity to Material--><g id="link_DefaultEntity_Material"><path codeLine="234" d="M1193.93,75 C951.47,75 401.33,75 401.33,75 C401.33,75 401.33,622.56 401.33,779.77 " fill="none" id="DefaultEntity-backto-Material" style="stroke:#2C3E6B;stroke-width:1.0;"/><polygon fill="none" points="1211.93,75,1193.93,69,1193.93,81,1211.93,75" style="stroke:#2C3E6B;stroke-width:1.0;"/></g><!--reverse link DefaultEntity to Arquivo--><g id="link_DefaultEntity_Arquivo"><path codeLine="235" d="M1313.25,161.23 C1313.25,303.31 1313.25,611.49 1313.25,753.43 " fill="none" id="DefaultEntity-backto-Arquivo" style="stroke:#2C3E6B;stroke-width:1.0;"/><polygon fill="none" points="1313.25,143.23,1307.25,161.23,1319.25,161.23,1313.25,143.23" style="stroke:#2C3E6B;stroke-width:1.0;"/></g><!--reverse link DefaultEntity to CupomDesconto--><g id="link_DefaultEntity_CupomDesconto"><path codeLine="236" d="M1405,161.44 C1405,202.96 1405,230 1405,230 C1405,230 1569.26,230 1672.88,230 " fill="none" id="DefaultEntity-backto-CupomDesconto" style="stroke:#2C3E6B;stroke-width:1.0;"/><polygon fill="none" points="1405,143.44,1399,161.44,1411,161.44,1405,143.44" style="stroke:#2C3E6B;stroke-width:1.0;"/></g><!--reverse link DefaultEntity to ListaDesejos--><g id="link_DefaultEntity_ListaDesejos"><path codeLine="237" d="M1383,161 C1383,223.67 1383,289 1383,289 C1383,289 1422.22,289 1462.36,289 " fill="none" id="DefaultEntity-backto-ListaDesejos" style="stroke:#2C3E6B;stroke-width:1.0;"/><polygon fill="none" points="1383,143,1377,161,1389,161,1383,143" style="stroke:#2C3E6B;stroke-width:1.0;"/></g><!--reverse link DefaultEntity to Pedido--><g id="link_DefaultEntity_Pedido"><path codeLine="238" d="M1445.22,41 C1585.43,41 1812,41 1960.31,41 " fill="none" id="DefaultEntity-backto-Pedido" style="stroke:#2C3E6B;stroke-width:1.0;"/><polygon fill="none" points="1427.22,41,1445.22,47,1445.22,35,1427.22,41" style="stroke:#2C3E6B;stroke-width:1.0;"/></g><!--reverse link DefaultEntity to ItemPedido--><g id="link_DefaultEntity_ItemPedido"><path codeLine="239" d="M1445.14,75 C1617.85,75 1919.67,75 1919.67,75 C1919.67,75 1919.67,289 1919.67,289 C1919.67,289 1937.95,289 1960.24,289 " fill="none" id="DefaultEntity-backto-ItemPedido" style="stroke:#2C3E6B;stroke-width:1.0;"/><polygon fill="none" points="1427.14,75,1445.14,81,1445.14,69,1427.14,75" style="stroke:#2C3E6B;stroke-width:1.0;"/></g><!--link Cliente to Usuario--><g id="link_Cliente_Usuario"><path codeLine="245" d="M1802.38,558 C1699.21,558 1550.83,558 1550.83,558 C1550.83,558 1550.83,688.12 1550.83,764.69 " fill="none" id="Cliente-to-Usuario" style="stroke:#2C3E6B;stroke-width:1.0;"/><polygon fill="#2C3E6B" points="1550.83,770.69,1554.83,761.69,1550.83,765.69,1546.83,761.69,1550.83,770.69" style="stroke:#2C3E6B;stroke-width:1.0;"/><text fill="#000000" font-family="sans-serif" font-size="13" lengthAdjust="spacing" textLength="32" x="1537.26" y="554.4951">conta</text><text fill="#000000" font-family="sans-serif" font-size="13" lengthAdjust="spacing" textLength="7" x="1787.3618" y="557.205">1</text><text fill="#000000" font-family="sans-serif" font-size="13" lengthAdjust="spacing" textLength="7" x="1540.179" y="760.3177">1</text></g><!--link Usuario to Perfil--><g id="link_Usuario_Perfil"><path codeLine="251" d="M1574.5,872.1 C1574.5,915.98 1574.5,972.7 1574.5,1013.75 " fill="none" id="Usuario-to-Perfil" style="stroke:#2C3E6B;stroke-width:1.0;"/><polygon fill="#2C3E6B" points="1574.5,1019.75,1578.5,1010.75,1574.5,1014.75,1570.5,1010.75,1574.5,1019.75" style="stroke:#2C3E6B;stroke-width:1.0;"/><text fill="#000000" font-family="sans-serif" font-size="13" lengthAdjust="spacing" textLength="27" x="1546.5" y="942.4251">perfil</text></g><!--link Pijama to Tamanho--><g id="link_Pijama_Tamanho"><path codeLine="252" d="M1213.83,623.18 C1213.83,664.63 1213.83,704 1213.83,704 C1213.83,704 1089.38,704 1000.72,704 " fill="none" id="Pijama-to-Tamanho" style="stroke:#2C3E6B;stroke-width:1.0;"/><polygon fill="#2C3E6B" points="994.72,704,1003.72,708,999.72,704,1003.72,700,994.72,704" style="stroke:#2C3E6B;stroke-width:1.0;"/><text fill="#000000" font-family="sans-serif" font-size="13" lengthAdjust="spacing" textLength="50" x="1093.68" y="700.4951">tamanho</text></g><!--link Pijama to SexoPijama--><g id="link_Pijama_SexoPijama"><path codeLine="253" d="M1165.43,596 C1124.16,596 1080.5,596 1080.5,596 C1080.5,596 1080.5,698.41 1080.5,764.89 " fill="none" id="Pijama-to-SexoPijama" style="stroke:#2C3E6B;stroke-width:1.0;"/><polygon fill="#2C3E6B" points="1080.5,770.89,1084.5,761.89,1080.5,765.89,1076.5,761.89,1080.5,770.89" style="stroke:#2C3E6B;stroke-width:1.0;"/><text fill="#000000" font-family="sans-serif" font-size="13" lengthAdjust="spacing" textLength="28" x="1051.5" y="637.4751">sexo</text></g><!--link Pedido to StatusPedido--><g id="link_Pedido_StatusPedido"><path codeLine="254" d="M2183.83,143.3 C2183.83,181.3 2183.83,221 2183.83,221 C2183.83,221 2371.89,221 2496.4,221 " fill="none" id="Pedido-to-StatusPedido" style="stroke:#2C3E6B;stroke-width:1.0;"/><polygon fill="#2C3E6B" points="2502.4,221,2493.4,217,2497.4,221,2493.4,225,2502.4,221" style="stroke:#2C3E6B;stroke-width:1.0;"/><text fill="#000000" font-family="sans-serif" font-size="13" lengthAdjust="spacing" textLength="36" x="2267.27" y="217.4951">status</text></g><!--link Pedido to FormaPagamento--><g id="link_Pedido_FormaPagamento"><path codeLine="255" d="M2157.17,143.35 C2157.17,186.45 2157.17,234 2157.17,234 C2157.17,234 2246.87,234 2316.21,234 " fill="none" id="Pedido-to-FormaPagamento" style="stroke:#2C3E6B;stroke-width:1.0;"/><polygon fill="#2C3E6B" points="2322.21,234,2313.21,230,2317.21,234,2313.21,238,2322.21,234" style="stroke:#2C3E6B;stroke-width:1.0;"/><text fill="#000000" font-family="sans-serif" font-size="13" lengthAdjust="spacing" textLength="98" x="2095.37" y="230.4951">formaPagamento</text></g><!--reverse link Cliente to Telefone--><g id="link_Cliente_Telefone"><path codeLine="261" d="M1871.5,599.79 C1871.5,655.48 1871.5,725.59 1871.5,776.2 " fill="none" id="Cliente-backto-Telefone" style="stroke:#2C3E6B;stroke-width:1.0;"/><polygon fill="#2C3E6B" points="1871.5,587.79,1867.5,593.79,1871.5,599.79,1875.5,593.79,1871.5,587.79" style="stroke:#2C3E6B;stroke-width:1.0;"/><text fill="#000000" font-family="sans-serif" font-size="13" lengthAdjust="spacing" textLength="52" x="1818.5" y="678.4851">telefones</text><text fill="#000000" font-family="sans-serif" font-size="13" lengthAdjust="spacing" textLength="7" x="1860.6609" y="609.4808">1</text><text fill="#000000" font-family="sans-serif" font-size="13" lengthAdjust="spacing" textLength="20" x="1849.9688" y="765.5491">0..*</text></g><!--reverse link Cliente to Endereco--><g id="link_Cliente_Endereco"><path codeLine="262" d="M1988.5,599.79 C1988.5,638.67 1988.5,678.43 1988.5,723.36 " fill="none" id="Cliente-backto-Endereco" style="stroke:#2C3E6B;stroke-width:1.0;"/><polygon fill="#2C3E6B" points="1988.5,587.79,1984.5,593.79,1988.5,599.79,1992.5,593.79,1988.5,587.79" style="stroke:#2C3E6B;stroke-width:1.0;"/><text fill="#000000" font-family="sans-serif" font-size="13" lengthAdjust="spacing" textLength="60" x="1927.5" y="652.0751">enderecos</text><text fill="#000000" font-family="sans-serif" font-size="13" lengthAdjust="spacing" textLength="7" x="1991.9203" y="609.4808">1</text><text fill="#000000" font-family="sans-serif" font-size="13" lengthAdjust="spacing" textLength="20" x="1962.6047" y="712.7497">0..*</text></g><!--reverse link Pedido to ItemPedido--><g id="link_Pedido_ItemPedido"><path codeLine="263" d="M2065.83,155.14 C2065.83,185.89 2065.83,209.59 2065.83,237.91 " fill="none" id="Pedido-backto-ItemPedido" style="stroke:#2C3E6B;stroke-width:1.0;"/><polygon fill="#2C3E6B" points="2065.83,143.14,2061.83,149.14,2065.83,155.14,2069.83,149.14,2065.83,143.14" style="stroke:#2C3E6B;stroke-width:1.0;"/><text fill="#000000" font-family="sans-serif" font-size="13" lengthAdjust="spacing" textLength="28" x="2036.83" y="187.0151">itens</text><text fill="#000000" font-family="sans-serif" font-size="13" lengthAdjust="spacing" textLength="7" x="2056.4406" y="164.5028">1</text><text fill="#000000" font-family="sans-serif" font-size="13" lengthAdjust="spacing" textLength="20" x="2048.1264" y="227.2027">1..*</text></g><!--reverse link Pijama to Arquivo--><g id="link_Pijama_Arquivo"><path codeLine="269" d="M1261.67,635.22 C1261.67,677.52 1261.67,714.43 1261.67,753.09 " fill="none" id="Pijama-backto-Arquivo" style="stroke:#2C3E6B;stroke-width:1.0;"/><polygon fill="none" points="1261.67,623.22,1257.67,629.22,1261.67,635.22,1265.67,629.22,1261.67,623.22" style="stroke:#2C3E6B;stroke-width:1.0;"/><text fill="#000000" font-family="sans-serif" font-size="13" lengthAdjust="spacing" textLength="49" x="1211.67" y="684.6551">imagens</text><text fill="#000000" font-family="sans-serif" font-size="13" lengthAdjust="spacing" textLength="7" x="1256.188" y="644.2761">1</text><text fill="#000000" font-family="sans-serif" font-size="13" lengthAdjust="spacing" textLength="20" x="1242.7188" y="742.721">0..*</text></g><!--reverse link ListaDesejos to Pijama--><g id="link_ListaDesejos_Pijama"><path codeLine="270" d="M1486.25,333.52 C1486.25,379.7 1486.25,446 1486.25,446 C1486.25,446 1383.23,446 1309.78,446 " fill="none" id="ListaDesejos-backto-Pijama" style="stroke:#2C3E6B;stroke-width:1.0;"/><polygon fill="none" points="1486.25,321.52,1482.25,327.52,1486.25,333.52,1490.25,327.52,1486.25,321.52" style="stroke:#2C3E6B;stroke-width:1.0;"/><text fill="#000000" font-family="sans-serif" font-size="13" lengthAdjust="spacing" textLength="45" x="1414.26" y="442.4951">pijamas</text><text fill="#000000" font-family="sans-serif" font-size="13" lengthAdjust="spacing" textLength="7" x="1467.3117" y="342.6466">1</text><text fill="#000000" font-family="sans-serif" font-size="13" lengthAdjust="spacing" textLength="20" x="1317.6223" y="434.892">0..*</text></g><!--link Pijama to Categoria--><g id="link_Pijama_Categoria"><path codeLine="276" d="M1165.39,461 C914.02,461 91.67,461 91.67,461 C91.67,461 91.67,678.9 91.67,773.79 " fill="none" id="Pijama-to-Categoria" style="stroke:#2C3E6B;stroke-width:1.0;"/><polygon fill="#2C3E6B" points="91.67,779.79,95.67,770.79,91.67,774.79,87.67,770.79,91.67,779.79" style="stroke:#2C3E6B;stroke-width:1.0;"/><text fill="#000000" font-family="sans-serif" font-size="13" lengthAdjust="spacing" textLength="53" x="415.13" y="457.4951">categoria</text><text fill="#000000" font-family="sans-serif" font-size="13" lengthAdjust="spacing" textLength="5" x="1152.6958" y="450.7338">*</text><text fill="#000000" font-family="sans-serif" font-size="13" lengthAdjust="spacing" textLength="7" x="87.5966" y="769.0629">1</text></g><!--link Pijama to Marca--><g id="link_Pijama_Marca"><path codeLine="277" d="M1165.29,542 C1000.46,542 610.67,542 610.67,542 C610.67,542 610.67,696.1 610.67,773.96 " fill="none" id="Pijama-to-Marca" style="stroke:#2C3E6B;stroke-width:1.0;"/><polygon fill="#2C3E6B" points="610.67,779.96,614.67,770.96,610.67,774.96,606.67,770.96,610.67,779.96" style="stroke:#2C3E6B;stroke-width:1.0;"/><text fill="#000000" font-family="sans-serif" font-size="13" lengthAdjust="spacing" textLength="36" x="732" y="538.4951">marca</text><text fill="#000000" font-family="sans-serif" font-size="13" lengthAdjust="spacing" textLength="5" x="1152.5855" y="540.0869">*</text><text fill="#000000" font-family="sans-serif" font-size="13" lengthAdjust="spacing" textLength="7" x="606.5966" y="769.2611">1</text></g><!--link Pijama to Estampa--><g id="link_Pijama_Estampa"><path codeLine="278" d="M1165.29,569 C1031.89,569 760.33,569 760.33,569 C760.33,569 760.33,714.05 760.33,782.49 " fill="none" id="Pijama-to-Estampa" style="stroke:#2C3E6B;stroke-width:1.0;"/><polygon fill="#2C3E6B" points="760.33,788.49,764.33,779.49,760.33,783.49,756.33,779.49,760.33,788.49" style="stroke:#2C3E6B;stroke-width:1.0;"/><text fill="#000000" font-family="sans-serif" font-size="13" lengthAdjust="spacing" textLength="50" x="802.07" y="565.4951">estampa</text><text fill="#000000" font-family="sans-serif" font-size="13" lengthAdjust="spacing" textLength="5" x="1152.5855" y="569.8713">*</text><text fill="#000000" font-family="sans-serif" font-size="13" lengthAdjust="spacing" textLength="22" x="739.5324" y="777.6033">0..1</text></g><!--link ListaDesejos to Cliente--><g id="link_ListaDesejos_Cliente"><path codeLine="279" d="M1591.67,321.85 C1591.67,381.21 1591.67,499 1591.67,499 C1591.67,499 1705.91,499 1796.1,499 " fill="none" id="ListaDesejos-to-Cliente" style="stroke:#2C3E6B;stroke-width:1.0;"/><polygon fill="#2C3E6B" points="1802.1,499,1793.1,495,1797.1,499,1793.1,503,1802.1,499" style="stroke:#2C3E6B;stroke-width:1.0;"/><text fill="#000000" font-family="sans-serif" font-size="13" lengthAdjust="spacing" textLength="28" x="1579.31" y="495.4951">dono</text><text fill="#000000" font-family="sans-serif" font-size="13" lengthAdjust="spacing" textLength="5" x="1593.832" y="342.5159">*</text><text fill="#000000" font-family="sans-serif" font-size="13" lengthAdjust="spacing" textLength="7" x="1787.3748" y="493.6207">1</text></g><!--link Pedido to Cliente--><g id="link_Pedido_Cliente"><path codeLine="280" d="M1960.22,109 C1916.82,109 1878.83,109 1878.83,109 C1878.83,109 1878.83,347.65 1878.83,463.29 " fill="none" id="Pedido-to-Cliente" style="stroke:#2C3E6B;stroke-width:1.0;"/><polygon fill="#2C3E6B" points="1878.83,469.29,1882.83,460.29,1878.83,464.29,1874.83,460.29,1878.83,469.29" style="stroke:#2C3E6B;stroke-width:1.0;"/><text fill="#000000" font-family="sans-serif" font-size="13" lengthAdjust="spacing" textLength="38" x="1839.83" y="244.9451">cliente</text><text fill="#000000" font-family="sans-serif" font-size="13" lengthAdjust="spacing" textLength="5" x="1947.4334" y="108.0888">*</text><text fill="#000000" font-family="sans-serif" font-size="13" lengthAdjust="spacing" textLength="7" x="1868.8843" y="458.5887">1</text></g><!--link Pedido to Endereco--><g id="link_Pedido_Endereco"><path codeLine="281" d="M2124.5,143.23 C2124.5,276.04 2124.5,563.72 2124.5,717.41 " fill="none" id="Pedido-to-Endereco" style="stroke:#2C3E6B;stroke-width:1.0;"/><polygon fill="#2C3E6B" points="2124.5,723.41,2128.5,714.41,2124.5,718.41,2120.5,714.41,2124.5,723.41" style="stroke:#2C3E6B;stroke-width:1.0;"/><text fill="#000000" font-family="sans-serif" font-size="13" lengthAdjust="spacing" textLength="98" x="2025.5" y="429.8151">enderecoEntrega</text><text fill="#000000" font-family="sans-serif" font-size="13" lengthAdjust="spacing" textLength="5" x="2123.2641" y="164.602">*</text><text fill="#000000" font-family="sans-serif" font-size="13" lengthAdjust="spacing" textLength="7" x="2122.5148" y="712.8035">1</text></g><!--link Pedido to CupomDesconto--><g id="link_Pedido_CupomDesconto"><path codeLine="282" d="M2013.17,143.06 C2013.17,175.78 2013.17,208 2013.17,208 C2013.17,208 1919.46,208 1844.09,208 " fill="none" id="Pedido-to-CupomDesconto" style="stroke:#2C3E6B;stroke-width:1.0;"/><polygon fill="#2C3E6B" points="1838.09,208,1847.09,212,1843.09,208,1847.09,204,1838.09,208" style="stroke:#2C3E6B;stroke-width:1.0;"/><text fill="#000000" font-family="sans-serif" font-size="13" lengthAdjust="spacing" textLength="39" x="1918.1" y="204.4951">cupom</text><text fill="#000000" font-family="sans-serif" font-size="13" lengthAdjust="spacing" textLength="5" x="2000.4532" y="164.4145">*</text><text fill="#000000" font-family="sans-serif" font-size="13" lengthAdjust="spacing" textLength="22" x="1846.1329" y="197.8933">0..1</text></g><!--link ItemPedido to Pijama--><g id="link_ItemPedido_Pijama"><path codeLine="283" d="M1978.5,339.36 C1978.5,389.28 1978.5,458 1978.5,458 C1978.5,458 1501.77,458 1315.56,458 " fill="none" id="ItemPedido-to-Pijama" style="stroke:#2C3E6B;stroke-width:1.0;"/><polygon fill="#2C3E6B" points="1309.56,458,1318.56,462,1314.56,458,1318.56,454,1309.56,458" style="stroke:#2C3E6B;stroke-width:1.0;"/><text fill="#000000" font-family="sans-serif" font-size="13" lengthAdjust="spacing" textLength="38" x="1664.35" y="454.4951">pijama</text><text fill="#000000" font-family="sans-serif" font-size="13" lengthAdjust="spacing" textLength="5" x="1965.3641" y="360.4301">*</text><text fill="#000000" font-family="sans-serif" font-size="13" lengthAdjust="spacing" textLength="7" x="1317.3521" y="465.0744">1</text></g><!--link Pijama to Cor--><g id="link_Pijama_Cor"><path codeLine="289" d="M1153.21,488 C928.72,488 270.5,488 270.5,488 C270.5,488 270.5,678.54 270.5,767.94 " fill="none" id="Pijama-Cor" style="stroke:#2C3E6B;stroke-width:1.0;"/><polygon fill="none" points="1165.21,488,1159.21,484,1153.21,488,1159.21,492,1165.21,488" style="stroke:#2C3E6B;stroke-width:1.0;"/><polygon fill="none" points="270.5,779.94,274.5,773.94,270.5,767.94,266.5,773.94,270.5,779.94" style="stroke:#2C3E6B;stroke-width:1.0;"/><text fill="#000000" font-family="sans-serif" font-size="13" lengthAdjust="spacing" textLength="32" x="538.89" y="484.4951">cores</text><text fill="#000000" font-family="sans-serif" font-size="13" lengthAdjust="spacing" textLength="20" x="1137.6239" y="481.046">1..*</text><text fill="#000000" font-family="sans-serif" font-size="13" lengthAdjust="spacing" textLength="5" x="269.0609" y="769.2377">*</text></g><!--link Pijama to Material--><g id="link_Pijama_Material"><path codeLine="290" d="M1153.3,515 C957.61,515 443.67,515 443.67,515 C443.67,515 443.67,684.04 443.67,767.85 " fill="none" id="Pijama-Material" style="stroke:#2C3E6B;stroke-width:1.0;"/><polygon fill="none" points="1165.3,515,1159.3,511,1153.3,515,1159.3,519,1165.3,515" style="stroke:#2C3E6B;stroke-width:1.0;"/><polygon fill="none" points="443.67,779.85,447.67,773.85,443.67,767.85,439.67,773.85,443.67,779.85" style="stroke:#2C3E6B;stroke-width:1.0;"/><text fill="#000000" font-family="sans-serif" font-size="13" lengthAdjust="spacing" textLength="53" x="618.06" y="511.4951">materiais</text><text fill="#000000" font-family="sans-serif" font-size="13" lengthAdjust="spacing" textLength="20" x="1137.4653" y="510.4686">1..*</text><text fill="#000000" font-family="sans-serif" font-size="13" lengthAdjust="spacing" textLength="5" x="441.7622" y="769.1328">*</text></g><!--SRC=[hLdlRjis4F_kfo2I3qqwf4lIDbkDjW0ZqQa1s_Byfoiw504jCJPJINGfAckp3TYm3ts1lK4V9M-o9zcHecH9Ljh1jb5KvF5ul3lU_Uw8F40lDlcr7g0UkI035xTXYD0lmv7NUOVG2-IB9QSI1Lmo9L0Wq5AAwzNmYYM9aDaUxEBXvDrg3qCqe4i5emCbXG_VM4Gi-TwdqL8aXzccWVVQomwIvXo1RfaKm8c0DO8pQ23llWXWtiombX9B1EhEX58YCdRuYekurKhUytX99OsG7z8amKf9FaiLw_eY7lDRXevBB26FcVgqP4X8jH2bXLW4B65BzAJCBMdyNXFFZjUEGR-r43gd_lkv56aSE28K4lsyu8ffkf01anbj_zHvJCxEWOgb5B_MYQyO1TQweFrdCne4isAz8s9LFK9JZ7Kd9wq_IiebYaacj8dEcb1orZdfd3SoatLct7diaaPclCRSSSWJubJSgLYZY_OxdOvBVgWxgVCC_tZwj6BNCTYrSRWyG0xkGo2Z4_Jld_-WSpmccuSUdILAKb_PctVP5Kr3HMB5rITZv3xY0MgZdeZdPXPGHHr86jWc3DsdeKiLc_285Gmu18TIdpPn71t1VzyXoUPS7otTai23GzXm8tYmpbA8NF7imeUdneTuEdcrJVhEcLemQVoL-N6Qf5HoOIXWCaeJ9cCQCL1z33biVAdf2OiNj4vSCdd5Gw0EpG2eO2b2B4uZIx9oiTitt-cOZ0pNBZpos7Z4wNN9O49swXGdv2oskQFjr51RjzrVNjL9BAB66nMYZh81JNo8gLXLmYntLtRcX8NiIiGCFNzEeXaB0ZeBsSkNXGw-2FXSOCdMRW6ypKo85zIIM193VZDVt2Ss57D90v5M1JIBpTI8bY7BRQaipIYN3Hi0kckaA8svpvTyZPSb2dHPYp8O0plLhZqN8cGqtbaCFSbY24_k_kfv5nui3FarZIWaDPOVKduZq7KAjYQmCX6G-mZ-6S-o1D8-f3wKFshemcu5pYlkQ_YbfknINUyWTnP2ybi0Lh3Z88-vmvs6hLNzQr4BzHLwWmplQaxMGT96haWXGFABWdeSDjsI-91gqLr8aZcJbawLTbVvZZHLWKhnGjCdsQW0b8z6Cdoitofncti_D-RAW7irGC4-J_8vZ-bQraMGRXFTOjJeLflpJmhkhoWMHfy5FNrwLiqY4s7PjTz_cHJY7am9M7x_bPinM6WjjyQC1XaMzY_nvMH4nfTzCYPZGpDJV3actJBLJF4bT7UaHDNx1vuPkfvc67Xb8VdifocUZBpLF1EMpxpkfBJcahUbYVUMh6ROdVOcNWNXLrTd3UkGVdVGjJhryTYPzlBPTD0TZycRwXqx089pSEG68LkIqgVItqu20TY9blVBAAiiv5UFMh2Fq2e2s5T3ig8kj0USXfjel0l4UseGZnmvNhzFHivk2sSFsY3gGWz_BPB2GDE8WScrBglcs7Gf8jW9xmKbQaNlVuFO3OK-jX1I0pDeLdmeMscjZkGQTdLDgYkOBtPurB2o3dZcYfgGcGKy41MFD3IS1g24CWfMLF-gNU1nbIR65NgG7PMZff0H7T8vpGjsfqAeNa5NiQYcw8UKGeCTG4YleRqf6DEOAzC-rdLAPsk6hFicGv6IrdctU3758nSFNEzoY2zm7_gx34LWbWr87p1oY4VOmPOmUDt5RZu61BoO4ZDnyC0XlMnf1LrLDzXZ7JoQOE_I6H6tQm-q99USvvHXzutvddizOl5mgwnyHKPuSFSPcwnKfjI0Um9e7y3dbKVEvebQVIiz__teA6_xcvPiyzkqP0jSqwOSofiM3K8tBLZWRHGePBEe33sRrcpBq2YjZ2vD36NWQhGyowg6bLNMR1C6U3psd2w- -tptjuTEsYURNtR-TjaxsOCNx4lppHzvRQGTGBTHb0oc_V7cskMQQCs6-UinUqQsR2-XboP5qsWRjl9YgUzecpQoPT73B9RXf6t1iSpGgKDY5IEtgh1UV-YDkzab7eGYeJ4KBt_1m62TtaiguMBYkoy2iOyGS0oqZv3GQIyETtFZ3o4YzuuVFNgujtfGWXFjCBcFjtWbjW4Vis7Xj1NlYU4jbOasueh5oLQ1Vm5OZMikkw6t5PVjqbisShAVDWr-OkM9_Dq1faLqheshz3Jh6t9v4CPcbEmC1WRRm43Lp8T6wnmET64hMc-aLVSB-Fx6lgpPjhysYWootxi7F0JRylRQxc4MzAj-NTVGHghT5OYuoFDxZQfkyMqX-yQk8lQjUdOA62_PdDw_EpEkKbdWJ3rjbLAawSIAl_AusM7O3EgP58E70y4J5D8W-sF1Tb5baG2oG1ZpzAieTxgG03Fty1Ll7nqvPiYJrdy0]--></g></svg>